<svg xmlns="http://www.w3.org/2000/svg" xmlns:xlink="http://www.w3.org/1999/xlink" id="Camada_1" x="0px" y="0px" viewBox="0 0 962.8 151" style="enable-background:new 0 0 962.8 151;" xml:space="preserve"><style type="text/css">	.st0{clip-path:url(#SVGID_2_);fill:none;stroke:#0B2355;stroke-miterlimit:10;}	.st1{clip-path:url(#SVGID_4_);}	.st2{clip-path:url(#SVGID_6_);}	.st3{clip-path:url(#SVGID_8_);}	.st4{fill:#0B2355;}	.st5{clip-path:url(#SVGID_10_);fill:#BF9500;}	.st6{clip-path:url(#SVGID_12_);fill:#BF9500;}	.st7{clip-path:url(#SVGID_14_);fill:none;stroke:#BF9500;stroke-width:1.2;stroke-miterlimit:10;}	.st8{clip-path:url(#SVGID_16_);fill:none;stroke:#BF9500;stroke-width:1.2;stroke-miterlimit:10;}	.st9{clip-path:url(#SVGID_18_);fill:#0B2355;}	.st10{clip-path:url(#SVGID_20_);fill:#0B2355;}	.st11{clip-path:url(#SVGID_22_);fill:none;stroke:#0B2355;stroke-width:1.2;stroke-miterlimit:10;}	.st12{clip-path:url(#SVGID_24_);fill:none;stroke:#0B2355;stroke-width:1.2;stroke-miterlimit:10;}	.st13{fill:#010202;}	.st14{fill:#ff6200;}</style><g>	<g>		<defs>			<rect id="SVGID_1_" x="1423.2" y="70.4" width="1289.8" height="737"></rect>		</defs>		<clipPath id="SVGID_2_">			<use xlink:href="#SVGID_1_" style="overflow:visible;"></use>		</clipPath>		<path class="st0" d="M1478.9,182.3c-0.7,0.1,0.1,1.4,1,1.8c3.6,1.9,3.9,4.5,6.7,6.9c1.2,1.1,2.6,2,4.3,2.7   c1.8,0.7,3.2,0.5,5.7,0.2c0.6-0.1,3.2,0.1,3.2-0.2C1497.9,185.6,1488,181.2,1478.9,182.3z M1476.3-38.4   c42.2,36.2,68.5,183.4,67.4,209.1c-8.8-47.9-28.8-60.2-29.7-60.7c0.9,0.7,22.5,26.6,20.5,66.2c-1.3,25.8,6,70,6.1,71.1   c-2.2-3.9-4.8-16.6-5.8-19c-21.3-63.6-49.9-51-57.3-49.3c14.1,1.2,24.5,1.8,36.6,21c15.1,24,72,187.3-16.2,397.7   c-74.8,145.9-86.7,239.7-76.1,332.7"></path>	</g></g><text transform="matrix(1 0 0 1 1591.3181 142.1131)" style="fill:#BF9500; font-family:'Bookerly-Light'; font-size:20px;">G</text><text transform="matrix(1 0 0 1 1604.2181 142.1131)" style="fill:#BF9500; font-family:'Bookerly-Light'; font-size:20px;">r</text><text transform="matrix(1 0 0 1 1610.3181 142.1131)" style="fill:#BF9500; font-family:'Bookerly-Light'; font-size:20px;">afismo</text><g>	<g>		<defs>			<rect id="SVGID_3_" x="1594" y="426.2" width="459" height="262.3"></rect>		</defs>		<clipPath id="SVGID_4_">			<use xlink:href="#SVGID_3_" style="overflow:visible;"></use>		</clipPath>		<g class="st1">							<image style="overflow:visible;enable-background:new    ;" width="1917" height="1100" xlink:href="B8956455.jpg" transform="matrix(0.2391 0 0 0.2392 1594.2701 425.8123)">			</image>		</g>	</g></g><g>	<g>		<defs>			<rect id="SVGID_5_" x="2093.3" y="425" width="462.4" height="264.2"></rect>		</defs>		<clipPath id="SVGID_6_">			<use xlink:href="#SVGID_5_" style="overflow:visible;"></use>		</clipPath>		<g class="st2">			<g>				<defs>					<rect id="SVGID_7_" x="2093.3" y="425" width="462.4" height="264.2"></rect>				</defs>				<clipPath id="SVGID_8_">					<use xlink:href="#SVGID_7_" style="overflow:visible;"></use>				</clipPath>				<g transform="matrix(1 0 0 1 0 0)" class="st3">											<image style="overflow:visible;enable-background:new    ;" width="1929" height="1104" xlink:href="B8956457.jpg" transform="matrix(0.2396 0 0 0.2397 2093.4319 424.7924)">					</image>				</g>			</g>		</g>	</g></g><path class="st4" d="M1594.5,159l-0.8-0.1c-0.1,0-0.2,0-0.2-0.1c0,0-0.1-0.1-0.1-0.2c0,0,0-0.1,0-0.2c0.4-0.1,0.9-0.1,1.4-0.1 s0.9-0.1,1.2-0.1c0.9,0,1.7,0.2,2.2,0.5s0.7,0.9,0.7,1.5c0,0.8-0.3,1.5-0.9,1.9c-0.6,0.5-1.4,0.7-2.5,0.7h-0.4v2.5l0.9,0.1 c0.1,0,0.2,0,0.2,0.1l0.1,0.1c0,0.1,0,0.2-0.1,0.3h-2.9v-0.3c0.1,0,0.2-0.1,0.4-0.1c0.2,0,0.4-0.1,0.6-0.1V159H1594.5z  M1595.6,162.5c0.9,0,1.5-0.2,2-0.5c0.4-0.3,0.7-0.8,0.7-1.4c0-0.5-0.2-1-0.6-1.3s-0.9-0.4-1.6-0.4c-0.2,0-0.5,0-0.9,0v3.6 L1595.6,162.5L1595.6,162.5z M1599.6,163.4c0-0.6,0.1-1.1,0.3-1.6c0.2-0.4,0.5-0.8,1-1c0.4-0.2,0.9-0.3,1.4-0.3 c0.8,0,1.4,0.2,1.9,0.7s0.7,1.2,0.7,2.1c0,0.6-0.1,1.1-0.3,1.6c-0.2,0.4-0.5,0.8-1,1c-0.4,0.2-0.9,0.3-1.4,0.3 c-0.8,0-1.4-0.2-1.9-0.7C1599.9,164.9,1599.6,164.2,1599.6,163.4z M1600.3,163.2c0,0.7,0.2,1.3,0.5,1.8c0.4,0.4,0.9,0.7,1.5,0.7 s1.1-0.2,1.4-0.6c0.3-0.4,0.5-1,0.5-1.7s-0.2-1.3-0.5-1.8c-0.4-0.4-0.9-0.7-1.5-0.7s-1.1,0.2-1.4,0.6 C1600.5,162,1600.3,162.5,1600.3,163.2z M1610.8,165.5l1.3,0.1c0,0,0,0.1,0,0.2c0,0.1-0.1,0.1-0.3,0.2c-0.2,0-0.4,0.1-0.6,0.1 c-0.3,0-0.5,0-0.8,0l-0.1-0.8c-0.2,0.3-0.5,0.5-0.9,0.6c-0.3,0.2-0.7,0.2-1.1,0.2c-0.8,0-1.4-0.2-1.8-0.7s-0.6-1.1-0.6-2 c0-0.6,0.1-1.2,0.4-1.6c0.2-0.5,0.6-0.8,1-1.1c0.4-0.2,0.9-0.4,1.5-0.4c0.5,0,1,0.1,1.5,0.2v-2.4l-1.1-0.1c0,0,0-0.1,0-0.2 c0,0,0-0.1,0.1-0.1c0,0,0.1-0.1,0.3-0.1c0.2-0.1,0.4-0.1,0.7-0.1c0.3,0,0.5-0.1,0.8-0.1v8.1H1610.8z M1610.2,161.3 c-0.3-0.1-0.6-0.2-0.8-0.2c-0.2,0-0.5-0.1-0.7-0.1c-0.4,0-0.8,0.1-1.1,0.3c-0.3,0.2-0.6,0.5-0.7,0.8c-0.2,0.4-0.3,0.8-0.3,1.2 c0,1.5,0.6,2.3,1.9,2.3c0.3,0,0.6-0.1,0.9-0.2c0.3-0.2,0.6-0.3,0.8-0.6L1610.2,161.3L1610.2,161.3z M1613.4,163.2 c0,0.8,0.2,1.4,0.6,1.8c0.4,0.4,0.9,0.6,1.6,0.6c0.3,0,0.6,0,0.9-0.1s0.6-0.1,0.9-0.2v0.2c0,0.2-0.2,0.4-0.5,0.6 c-0.3,0.1-0.8,0.2-1.3,0.2c-1.8,0-2.7-0.9-2.7-2.8c0-0.9,0.2-1.7,0.7-2.2s1.1-0.8,1.9-0.8c0.6,0,1.1,0.2,1.5,0.5 c0.4,0.4,0.5,0.9,0.5,1.5c0,0.3,0,0.6-0.1,0.7H1613.4z M1616.7,162.7c0-1.2-0.5-1.7-1.5-1.7c-0.5,0-0.9,0.1-1.2,0.4 c-0.3,0.3-0.5,0.7-0.5,1.3H1616.7L1616.7,162.7z M1628.3,165.6c0.1,0,0.2,0,0.2,0.1l0.1,0.1v0.1v0.1h-2.5v-0.3 c0.3-0.1,0.6-0.2,0.9-0.2v-2.9c0-0.6-0.1-1-0.3-1.2c-0.2-0.2-0.5-0.4-1-0.4c-0.4,0-0.7,0.1-1,0.2c-0.3,0.2-0.6,0.4-0.9,0.7 c0,0.2,0,0.3,0,0.4v3.1l0.7,0.1c0.1,0,0.2,0,0.2,0.1l0.1,0.1v0.1v0.1h-2.5v-0.3c0.2-0.1,0.5-0.2,0.9-0.2v-2.9c0-0.6-0.1-1-0.3-1.2 c-0.2-0.2-0.5-0.4-1-0.4c-0.7,0-1.3,0.3-1.8,1v3.5l0.6,0.1c0.1,0,0.2,0,0.2,0.1c0,0,0.1,0.1,0.1,0.2v0.1v0.1h-2.5v-0.3 c0.3-0.1,0.6-0.2,1-0.2v-4.3l-1.1-0.1V161c0-0.1,0-0.1,0.1-0.1c0,0,0.1-0.1,0.3-0.1c0.1,0,0.3-0.1,0.6-0.1c0.2,0,0.5-0.1,0.7-0.1 l0.1,0.9c0.3-0.4,0.7-0.6,1-0.8s0.7-0.2,1.1-0.2c0.8,0,1.4,0.3,1.6,1c0.3-0.4,0.7-0.6,1-0.8s0.7-0.2,1.1-0.2c0.6,0,1,0.2,1.3,0.5 s0.5,0.8,0.5,1.5v3.1L1628.3,165.6z M1629.3,163.4c0-0.6,0.1-1.1,0.3-1.6c0.2-0.4,0.5-0.8,1-1c0.4-0.2,0.9-0.3,1.4-0.3 c0.8,0,1.4,0.2,1.9,0.7s0.7,1.2,0.7,2.1c0,0.6-0.1,1.1-0.3,1.6c-0.2,0.4-0.5,0.8-1,1s-0.9,0.3-1.4,0.3c-0.8,0-1.4-0.2-1.9-0.7 C1629.6,164.9,1629.3,164.2,1629.3,163.4z M1630,163.2c0,0.7,0.2,1.3,0.5,1.8s0.9,0.7,1.5,0.7s1.1-0.2,1.4-0.6 c0.3-0.4,0.5-1,0.5-1.7s-0.2-1.3-0.5-1.8c-0.4-0.4-0.9-0.7-1.5-0.7s-1.1,0.2-1.4,0.6C1630.2,162,1630,162.5,1630,163.2z  M1637.4,166.2c-0.6,0-1.1-0.1-1.5-0.3c-0.1-0.3-0.1-0.7-0.1-1.1c0-0.4,0.1-0.6,0.3-0.6h0.1c0,0.5,0.1,0.9,0.3,1.2 c0.2,0.2,0.5,0.3,1,0.3c0.4,0,0.8-0.1,1-0.3s0.4-0.4,0.4-0.7c0-0.2-0.1-0.4-0.2-0.5s-0.4-0.3-0.7-0.4l-0.8-0.3 c-0.4-0.2-0.7-0.4-0.9-0.6c-0.2-0.2-0.3-0.5-0.3-0.8c0-0.5,0.2-0.8,0.5-1.1c0.4-0.3,0.8-0.4,1.4-0.4c0.3,0,0.5,0,0.8,0.1 s0.5,0.1,0.7,0.2c0,0.1,0,0.3,0,0.5c0,0.3,0,0.5-0.1,0.6s-0.1,0.2-0.3,0.2h-0.1V162c0-0.7-0.4-1-1.2-1c-0.4,0-0.7,0.1-0.9,0.2 c-0.2,0.2-0.3,0.4-0.3,0.7c0,0.2,0.1,0.4,0.2,0.5s0.3,0.3,0.6,0.4l0.9,0.4c0.5,0.2,0.8,0.4,1,0.6c0.2,0.2,0.3,0.5,0.3,0.8 c0,0.5-0.2,0.9-0.6,1.2C1638.6,166,1638.1,166.2,1637.4,166.2z M1649.7,165.6c0,0,0,0.1,0,0.2c0,0.1-0.1,0.1-0.3,0.2 c-0.2,0-0.4,0.1-0.6,0.1c-0.3,0-0.5,0-0.8,0l-0.1-1c-0.3,0.3-0.6,0.6-1,0.8s-0.8,0.3-1.2,0.3c-0.6,0-1-0.2-1.3-0.5s-0.4-0.8-0.4-1.5 v-3l-1.1-0.1c0-0.1,0-0.1,0-0.1c0-0.1,0-0.1,0.1-0.1s0.2-0.1,0.3-0.1c0.5-0.1,1-0.2,1.4-0.2l-0.1,1v2.7c0,0.5,0.1,0.8,0.3,1.1 c0.2,0.2,0.5,0.3,1,0.3c0.4,0,0.8-0.1,1.1-0.3c0.3-0.2,0.6-0.4,0.9-0.8v-3.4l-1-0.1c0-0.1,0-0.1,0-0.1c0-0.1,0-0.1,0.1-0.1 s0.2-0.1,0.3-0.1c0.4-0.1,0.9-0.2,1.4-0.2l-0.1,1v4L1649.7,165.6z M1650.9,159.8c0-0.3,0.1-0.5,0.2-0.6s0.3-0.2,0.5-0.2h0.1v1.6h1.8 c0.2,0,0.2,0.1,0.2,0.2c0,0.1,0,0.2-0.1,0.4h-1.9v3.4c0,0.4,0.1,0.6,0.2,0.8s0.4,0.2,0.7,0.2c0.2,0,0.4,0,0.7-0.1 c0.3,0,0.5-0.1,0.6-0.1v0.3c0,0.1-0.2,0.3-0.5,0.4c-0.3,0.1-0.7,0.2-1.1,0.2c-0.5,0-0.8-0.1-1-0.3s-0.3-0.6-0.3-1.1v-3.6h-1.2V161 c0.2-0.1,0.6-0.2,1.1-0.2L1650.9,159.8z M1654.4,166.1v-0.3c0.3-0.1,0.6-0.2,1.1-0.3v-4.3l-1.1-0.1V161v-0.1c0,0,0-0.1,0.1-0.1 s0.1-0.1,0.3-0.1c0.2-0.1,0.4-0.1,0.7-0.1c0.3,0,0.5-0.1,0.7-0.1h0.1v5l0.9,0.1c0.1,0,0.2,0,0.2,0.1l0.1,0.1c0,0.1,0,0.2-0.1,0.3 L1654.4,166.1L1654.4,166.1z M1655.2,158.5c0-0.2,0-0.3,0.1-0.4c0.1-0.1,0.2-0.1,0.4-0.1c0.2,0,0.3,0,0.4,0.1s0.1,0.2,0.1,0.4 s0,0.3-0.1,0.4c-0.1,0.1-0.2,0.1-0.4,0.1c-0.2,0-0.3,0-0.4-0.1C1655.3,158.8,1655.2,158.7,1655.2,158.5z M1660.5,165.6 c0.1,0,0.2,0,0.2,0.1l0.1,0.1c0,0.1,0,0.1-0.1,0.3h-2.9v-0.3c0.3-0.1,0.7-0.2,1.1-0.3v-7.3l-1.1-0.1c0,0,0-0.1,0-0.2 c0,0,0-0.1,0.1-0.1c0,0,0.1-0.1,0.3-0.1c0.2-0.1,0.4-0.1,0.7-0.1c0.3,0,0.5-0.1,0.8-0.1v7.9L1660.5,165.6z M1661.2,166.1v-0.3 c0.3-0.1,0.6-0.2,1.1-0.3v-4.3l-1.1-0.1V161v-0.1c0,0,0-0.1,0.1-0.1s0.1-0.1,0.3-0.1c0.2-0.1,0.4-0.1,0.7-0.1c0.3,0,0.5-0.1,0.7-0.1 h0.1v5l0.9,0.1c0.1,0,0.2,0,0.2,0.1l0.1,0.1c0,0.1,0,0.2-0.1,0.3L1661.2,166.1L1661.2,166.1z M1662,158.5c0-0.2,0-0.3,0.1-0.4 c0.1-0.1,0.2-0.1,0.4-0.1c0.2,0,0.3,0,0.4,0.1s0.1,0.2,0.1,0.4s0,0.3-0.1,0.4c-0.1,0.1-0.2,0.1-0.4,0.1c-0.2,0-0.3,0-0.4-0.1 C1662.1,158.8,1662,158.7,1662,158.5z M1668.5,166.1h-3.3c-0.1,0-0.2,0-0.2,0s-0.1-0.1-0.1-0.2v-0.2l3.5-4.6h-1.2 c-0.7,0-1.2,0-1.5,0l-0.4,1.1h-0.2c-0.1,0-0.1,0-0.2-0.1c0,0,0-0.2,0-0.3c0-0.4,0-0.8,0.1-1.3h3.8c0.1,0,0.2,0,0.2,0.1 c0,0,0.1,0.2,0.2,0.3l-3.5,4.6h1.6c0.4,0,0.8,0,1.2-0.1c0.2-0.3,0.3-0.7,0.5-1.2h0.1c0.2,0,0.3,0.1,0.3,0.3s0,0.4-0.1,0.8 s-0.2,0.6-0.2,0.7L1668.5,166.1z M1675.6,165.7c0,0.1-0.1,0.2-0.3,0.3c-0.2,0.1-0.4,0.1-0.7,0.1c-0.4,0-0.7-0.3-0.8-0.9 c-0.2,0.3-0.5,0.5-0.8,0.7s-0.7,0.2-1,0.2c-0.5,0-0.9-0.1-1.2-0.4c-0.3-0.3-0.5-0.7-0.5-1.1c0-0.3,0.1-0.6,0.4-0.9 c0.2-0.2,0.6-0.4,1.1-0.5s1.2-0.2,2-0.2v-0.6c0-0.5-0.1-0.9-0.3-1.1c-0.2-0.2-0.5-0.3-0.9-0.3c-0.9,0-1.4,0.4-1.4,1.3h-0.1 c-0.4,0-0.6-0.1-0.6-0.4c0-0.2,0.1-0.5,0.4-0.7c0.2-0.2,0.5-0.4,0.9-0.5s0.7-0.2,1.1-0.2c0.5,0,0.9,0.2,1.2,0.5 c0.3,0.3,0.4,0.8,0.4,1.4v2.5c0,0.3,0.1,0.5,0.2,0.6s0.3,0.2,0.5,0.2s0.4,0,0.6-0.1v0.1H1675.6z M1673.8,163.5h-0.4 c-0.9,0-1.5,0.1-1.8,0.3c-0.4,0.2-0.5,0.4-0.5,0.7s0.1,0.5,0.3,0.7s0.5,0.3,0.8,0.3s0.6-0.1,0.9-0.2c0.3-0.2,0.5-0.4,0.7-0.6V163.5z  M1677.7,161.7L1677.7,161.7c0.4-0.5,0.7-0.8,1-1s0.6-0.3,1-0.3c0.2,0,0.4,0,0.5,0.1s0.2,0.2,0.2,0.4c0,0.1-0.1,0.3-0.2,0.5 c-0.3-0.2-0.5-0.3-0.8-0.3c-0.5,0-1.1,0.4-1.6,1.2v3.2l1.1,0.1c0.2,0,0.2,0.1,0.2,0.2c0,0.1,0,0.2-0.1,0.3h-3v-0.3 c0.2-0.1,0.6-0.2,1-0.3v-4.3l-1.1-0.1c0,0,0,0,0-0.1s0,0,0-0.1s0-0.1,0.1-0.1c0,0,0.1-0.1,0.3-0.1c0.1,0,0.3-0.1,0.6-0.1 c0.2,0,0.5-0.1,0.7-0.1L1677.7,161.7z M1684.2,159.8c0-0.3,0.1-0.5,0.2-0.6s0.3-0.2,0.5-0.2h0.1v1.6h1.8c0.2,0,0.2,0.1,0.2,0.2 c0,0.1,0,0.2-0.1,0.4h-1.9v3.4c0,0.4,0.1,0.6,0.2,0.8s0.4,0.2,0.7,0.2c0.2,0,0.4,0,0.7-0.1s0.5-0.1,0.6-0.1v0.3 c0,0.1-0.2,0.3-0.5,0.4c-0.3,0.1-0.7,0.2-1.1,0.2c-0.5,0-0.8-0.1-1-0.3s-0.3-0.6-0.3-1.1v-3.6h-1.2V161c0.2-0.1,0.6-0.2,1.1-0.2 L1684.2,159.8z M1693.3,165.7c0,0.1-0.1,0.2-0.3,0.3c-0.2,0.1-0.4,0.1-0.7,0.1c-0.4,0-0.7-0.3-0.8-0.9c-0.2,0.3-0.5,0.5-0.8,0.7 s-0.7,0.2-1,0.2c-0.5,0-0.9-0.1-1.2-0.4c-0.3-0.3-0.5-0.7-0.5-1.1c0-0.3,0.1-0.6,0.4-0.9c0.2-0.2,0.6-0.4,1.1-0.5s1.2-0.2,2-0.2 v-0.6c0-0.5-0.1-0.9-0.3-1.1c-0.2-0.2-0.5-0.3-0.9-0.3c-0.9,0-1.4,0.4-1.4,1.3h-0.1c-0.4,0-0.6-0.1-0.6-0.4c0-0.2,0.1-0.5,0.4-0.7 c0.2-0.2,0.5-0.4,0.9-0.5s0.7-0.2,1.1-0.2c0.5,0,0.9,0.2,1.2,0.5c0.3,0.3,0.4,0.8,0.4,1.4v2.5c0,0.3,0.1,0.5,0.2,0.6 s0.3,0.2,0.5,0.2s0.4,0,0.6-0.1v0.1H1693.3z M1691.4,163.5h-0.4c-0.9,0-1.5,0.1-1.8,0.3c-0.4,0.2-0.5,0.4-0.5,0.7s0.1,0.5,0.3,0.7 c0.2,0.2,0.5,0.3,0.8,0.3s0.6-0.1,0.9-0.2c0.3-0.2,0.5-0.4,0.7-0.6V163.5z M1703.7,165.6c0.1,0,0.2,0,0.2,0.1l0.1,0.1v0.1v0.1h-2.5 v-0.3c0.3-0.1,0.6-0.2,0.9-0.2v-2.9c0-0.6-0.1-1-0.3-1.2c-0.2-0.2-0.5-0.4-1-0.4c-0.4,0-0.7,0.1-1,0.2c-0.3,0.2-0.6,0.4-0.9,0.7 c0,0.2,0,0.3,0,0.4v3.1l0.7,0.1c0.1,0,0.2,0,0.2,0.1l0.1,0.1v0.1v0.1h-2.5v-0.3c0.2-0.1,0.5-0.2,0.9-0.2v-2.9c0-0.6-0.1-1-0.3-1.2 c-0.2-0.2-0.5-0.4-1-0.4c-0.7,0-1.3,0.3-1.8,1v3.5l0.6,0.1c0.1,0,0.2,0,0.2,0.1c0,0,0.1,0.1,0.1,0.2v0.1v0.1h-2.5v-0.3 c0.3-0.1,0.6-0.2,1-0.2v-4.3l-1.1-0.1V161c0-0.1,0-0.1,0.1-0.1c0,0,0.1-0.1,0.3-0.1c0.1,0,0.3-0.1,0.6-0.1c0.2,0,0.5-0.1,0.7-0.1 l0.1,0.9c0.3-0.4,0.7-0.6,1-0.8s0.7-0.2,1.1-0.2c0.8,0,1.4,0.3,1.6,1c0.3-0.4,0.7-0.6,1-0.8s0.7-0.2,1.1-0.2c0.6,0,1,0.2,1.3,0.5 s0.5,0.8,0.5,1.5v3.1L1703.7,165.6z M1705.3,164.9v-6.7l-1.1-0.1c0,0,0-0.1,0-0.2c0,0,0-0.1,0.1-0.1c0,0,0.1-0.1,0.3-0.1 c0.2-0.1,0.4-0.1,0.7-0.1c0.3,0,0.5-0.1,0.8-0.1v3c0,0.2,0,0.5,0,0.8c0.3-0.3,0.6-0.6,1-0.8c0.3-0.2,0.7-0.3,1.1-0.3 c0.7,0,1.2,0.2,1.7,0.7c0.4,0.5,0.6,1.1,0.6,1.9c0,0.7-0.1,1.2-0.4,1.7c-0.2,0.5-0.6,0.9-1,1.1c-0.4,0.3-0.9,0.4-1.5,0.4 c-0.7,0-1.5-0.1-2.2-0.4L1705.3,164.9z M1706,165.3c0.6,0.2,1.1,0.3,1.5,0.3c0.6,0,1.2-0.2,1.5-0.7s0.6-1,0.6-1.8 c0-0.7-0.2-1.2-0.5-1.6c-0.3-0.4-0.7-0.6-1.3-0.6c-0.3,0-0.6,0.1-1,0.3c-0.3,0.2-0.6,0.4-0.9,0.7v3.4H1706z M1711.9,163.2 c0,0.8,0.2,1.4,0.6,1.8c0.4,0.4,0.9,0.6,1.6,0.6c0.3,0,0.6,0,0.9-0.1s0.6-0.1,0.9-0.2v0.2c0,0.2-0.2,0.4-0.5,0.6 c-0.3,0.1-0.8,0.2-1.3,0.2c-1.8,0-2.7-0.9-2.7-2.8c0-0.9,0.2-1.7,0.7-2.2s1.1-0.8,1.9-0.8c0.6,0,1.1,0.2,1.5,0.5 c0.4,0.4,0.5,0.9,0.5,1.5c0,0.3,0,0.6-0.1,0.7H1711.9z M1715.2,162.7c0-1.2-0.5-1.7-1.5-1.7c-0.5,0-0.9,0.1-1.2,0.4 c-0.3,0.3-0.5,0.7-0.5,1.3H1715.2L1715.2,162.7z M1713.3,159.6c-0.1,0-0.1-0.1-0.1-0.2c0-0.1,0-0.2,0.1-0.3l1.3-1.9l0.2,0.1 c0.1,0.1,0.2,0.1,0.2,0.2c0,0.1,0.1,0.1,0.1,0.2c0,0.1-0.1,0.3-0.3,0.6C1714.6,158.6,1714.1,159,1713.3,159.6L1713.3,159.6z  M1726.9,165.6c0.1,0,0.2,0,0.2,0.1l0.1,0.1v0.1v0.1h-2.5v-0.3c0.3-0.1,0.6-0.2,0.9-0.2v-2.9c0-0.6-0.1-1-0.3-1.2 c-0.2-0.2-0.5-0.4-1-0.4c-0.4,0-0.7,0.1-1,0.2c-0.3,0.2-0.6,0.4-0.9,0.7c0,0.2,0,0.3,0,0.4v3.1l0.7,0.1c0.1,0,0.2,0,0.2,0.1l0.1,0.1 v0.1v0.1h-2.5v-0.3c0.2-0.1,0.5-0.2,0.9-0.2v-2.9c0-0.6-0.1-1-0.3-1.2c-0.2-0.2-0.5-0.4-1-0.4c-0.7,0-1.3,0.3-1.8,1v3.5l0.6,0.1 c0.1,0,0.2,0,0.2,0.1c0,0,0.1,0.1,0.1,0.2v0.1v0.1h-2.5v-0.3c0.3-0.1,0.6-0.2,1-0.2v-4.3l-1.1-0.1V161c0-0.1,0-0.1,0.1-0.1 c0,0,0.1-0.1,0.3-0.1c0.1,0,0.3-0.1,0.6-0.1c0.2,0,0.5-0.1,0.7-0.1l0.1,0.9c0.3-0.4,0.7-0.6,1-0.8s0.7-0.2,1.1-0.2 c0.8,0,1.4,0.3,1.6,1c0.3-0.4,0.7-0.6,1-0.8s0.7-0.2,1.1-0.2c0.6,0,1,0.2,1.3,0.5s0.5,0.8,0.5,1.5v3.1L1726.9,165.6z M1727.9,168 c-0.1,0-0.2-0.1-0.3-0.2c0.2-0.2,0.4-0.5,0.6-0.8s0.3-0.6,0.4-0.9c-0.1-0.3-0.1-0.6-0.3-0.9c0.2-0.1,0.5-0.2,0.6-0.2 s0.3,0.1,0.3,0.2c0.1,0.1,0.1,0.2,0.1,0.4c0,0.3-0.1,0.6-0.3,1c-0.2,0.4-0.4,0.7-0.7,1C1728.2,167.8,1728.1,168,1727.9,168 L1727.9,168z M1737.6,165.4c0,0.1-0.1,0.3-0.3,0.4c-0.2,0.1-0.4,0.2-0.7,0.3c-0.3,0.1-0.6,0.1-0.9,0.1c-0.9,0-1.5-0.2-2-0.7 s-0.7-1.1-0.7-2c0-0.6,0.1-1.2,0.3-1.6c0.2-0.5,0.5-0.8,0.9-1s0.9-0.4,1.4-0.4s1,0.1,1.3,0.3s0.5,0.5,0.5,0.8c0,0.2,0,0.3-0.1,0.4 c-0.1,0.1-0.2,0.2-0.4,0.2h-0.1c0-0.4-0.1-0.7-0.3-0.9c-0.2-0.2-0.5-0.3-1-0.3c-0.6,0-1,0.2-1.4,0.6c-0.3,0.4-0.5,1-0.5,1.7 c0,0.8,0.2,1.3,0.6,1.7s0.9,0.6,1.7,0.6C1736.4,165.6,1737,165.5,1737.6,165.4L1737.6,165.4L1737.6,165.4z M1738.5,163.4 c0-0.6,0.1-1.1,0.3-1.6c0.2-0.4,0.5-0.8,1-1c0.4-0.2,0.9-0.3,1.4-0.3c0.8,0,1.4,0.2,1.9,0.7s0.7,1.2,0.7,2.1c0,0.6-0.1,1.1-0.3,1.6 c-0.2,0.4-0.5,0.8-1,1s-0.9,0.3-1.4,0.3c-0.8,0-1.4-0.2-1.9-0.7C1738.7,164.9,1738.5,164.2,1738.5,163.4z M1739.2,163.2 c0,0.7,0.2,1.3,0.5,1.8c0.4,0.4,0.9,0.7,1.5,0.7s1.1-0.2,1.4-0.6c0.3-0.4,0.5-1,0.5-1.7s-0.2-1.3-0.5-1.8c-0.4-0.4-0.9-0.7-1.5-0.7 s-1.1,0.2-1.4,0.6C1739.4,162,1739.2,162.5,1739.2,163.2z M1754.7,165.6c0.1,0,0.2,0,0.2,0.1l0.1,0.1v0.1v0.1h-2.5v-0.3 c0.3-0.1,0.6-0.2,0.9-0.2v-2.9c0-0.6-0.1-1-0.3-1.2c-0.2-0.2-0.5-0.4-1-0.4c-0.4,0-0.7,0.1-1,0.2c-0.3,0.2-0.6,0.4-0.9,0.7 c0,0.2,0,0.3,0,0.4v3.1l0.7,0.1c0.1,0,0.2,0,0.2,0.1l0.1,0.1v0.1v0.1h-2.5v-0.3c0.2-0.1,0.5-0.2,0.9-0.2v-2.9c0-0.6-0.1-1-0.3-1.2 c-0.2-0.2-0.5-0.4-1-0.4c-0.7,0-1.3,0.3-1.8,1v3.5l0.6,0.1c0.1,0,0.2,0,0.2,0.1c0,0,0.1,0.1,0.1,0.2v0.1v0.1h-2.5v-0.3 c0.3-0.1,0.6-0.2,1-0.2v-4.3l-1.1-0.1V161c0-0.1,0-0.1,0.1-0.1c0,0,0.1-0.1,0.3-0.1c0.1,0,0.3-0.1,0.6-0.1c0.2,0,0.5-0.1,0.7-0.1 l0.1,0.9c0.3-0.4,0.7-0.6,1-0.8s0.7-0.2,1.1-0.2c0.8,0,1.4,0.3,1.6,1c0.3-0.4,0.7-0.6,1-0.8s0.7-0.2,1.1-0.2c0.6,0,1,0.2,1.3,0.5 s0.5,0.8,0.5,1.5v3.1L1754.7,165.6z M1755.7,163.4c0-0.6,0.1-1.1,0.3-1.6c0.2-0.4,0.5-0.8,1-1c0.4-0.2,0.9-0.3,1.4-0.3 c0.8,0,1.4,0.2,1.9,0.7s0.7,1.2,0.7,2.1c0,0.6-0.1,1.1-0.3,1.6c-0.2,0.4-0.5,0.8-1,1s-0.9,0.3-1.4,0.3c-0.8,0-1.4-0.2-1.9-0.7 C1755.9,164.9,1755.7,164.2,1755.7,163.4z M1756.3,163.2c0,0.7,0.2,1.3,0.5,1.8s0.9,0.7,1.5,0.7s1.1-0.2,1.4-0.6 c0.3-0.4,0.5-1,0.5-1.7s-0.2-1.3-0.5-1.8s-0.9-0.7-1.5-0.7s-1.1,0.2-1.4,0.6C1756.5,162,1756.3,162.5,1756.3,163.2z M1766.8,164.1 c-0.4,0-0.8-0.1-1.1-0.2c-0.1,0.1-0.2,0.2-0.3,0.4c-0.1,0.2-0.1,0.3-0.1,0.4c0,0.2,0.1,0.4,0.3,0.4c0.2,0.1,0.5,0.1,1,0.1h1.5 c0.5,0,1,0.1,1.2,0.3c0.3,0.2,0.4,0.5,0.4,0.9s-0.1,0.8-0.4,1.1s-0.7,0.6-1.2,0.8s-1,0.3-1.6,0.3c-0.7,0-1.3-0.1-1.7-0.4 c-0.4-0.3-0.6-0.6-0.6-1c0-0.3,0.1-0.5,0.2-0.7c0.2-0.2,0.4-0.5,0.8-0.7c-0.2-0.1-0.3-0.2-0.4-0.3s-0.2-0.3-0.2-0.5s0.1-0.4,0.2-0.7 c0.1-0.2,0.3-0.4,0.5-0.6c-0.4-0.3-0.6-0.8-0.6-1.4c0-0.4,0.1-0.7,0.3-1c0.2-0.3,0.4-0.5,0.8-0.7c0.3-0.2,0.7-0.2,1.1-0.2 s0.8,0.1,1.1,0.2c0.6-0.2,1-0.2,1.4-0.2c0.3,0,0.5,0.1,0.5,0.3c0,0.1,0,0.2-0.1,0.2c0,0.1-0.1,0.2-0.1,0.2c-0.1-0.1-0.3-0.1-0.5-0.2 c-0.2,0-0.5-0.1-0.7-0.1c0.2,0.2,0.3,0.4,0.4,0.6c0.1,0.2,0.1,0.4,0.1,0.7c0,0.6-0.2,1-0.6,1.4C1768,164,1767.4,164.1,1766.8,164.1z  M1766.5,165.9c-0.3,0-0.6,0-0.8,0c-0.3,0.2-0.5,0.4-0.7,0.6c-0.2,0.2-0.2,0.4-0.2,0.7s0.1,0.5,0.4,0.7s0.7,0.2,1.3,0.2 c0.5,0,1-0.1,1.3-0.2c0.4-0.1,0.7-0.3,0.9-0.5c0.2-0.2,0.3-0.5,0.3-0.7s-0.1-0.4-0.2-0.5c-0.2-0.1-0.4-0.2-0.8-0.2h-1.5V165.9z  M1766.8,160.9c-1,0-1.4,0.4-1.4,1.3c0,0.9,0.5,1.4,1.5,1.4s1.4-0.4,1.4-1.3C1768.3,161.4,1767.8,160.9,1766.8,160.9L1766.8,160.9z  M1772.1,161.7L1772.1,161.7c0.4-0.5,0.7-0.8,1-1s0.6-0.3,1-0.3c0.2,0,0.4,0,0.5,0.1s0.2,0.2,0.2,0.4c0,0.1-0.1,0.3-0.2,0.5 c-0.3-0.2-0.5-0.3-0.8-0.3c-0.5,0-1.1,0.4-1.6,1.2v3.2l1.1,0.1c0.2,0,0.2,0.1,0.2,0.2c0,0.1,0,0.2-0.1,0.3h-3v-0.3 c0.2-0.1,0.6-0.2,1-0.3v-4.3l-1.1-0.1c0,0,0,0,0-0.1s0,0,0-0.1s0-0.1,0.1-0.1c0,0,0.1-0.1,0.3-0.1c0.1,0,0.3-0.1,0.6-0.1 c0.2,0,0.5-0.1,0.7-0.1L1772.1,161.7z M1780.7,165.7c0,0.1-0.1,0.2-0.3,0.3c-0.2,0.1-0.4,0.1-0.7,0.1c-0.4,0-0.7-0.3-0.8-0.9 c-0.2,0.3-0.5,0.5-0.8,0.7s-0.7,0.2-1,0.2c-0.5,0-0.9-0.1-1.2-0.4c-0.3-0.3-0.5-0.7-0.5-1.1c0-0.3,0.1-0.6,0.4-0.9 c0.2-0.2,0.6-0.4,1.1-0.5s1.2-0.2,2-0.2v-0.6c0-0.5-0.1-0.9-0.3-1.1c-0.2-0.2-0.5-0.3-0.9-0.3c-0.9,0-1.4,0.4-1.4,1.3h-0.1 c-0.4,0-0.6-0.1-0.6-0.4c0-0.2,0.1-0.5,0.4-0.7c0.2-0.2,0.5-0.4,0.9-0.5s0.7-0.2,1.1-0.2c0.5,0,0.9,0.2,1.2,0.5 c0.3,0.3,0.4,0.8,0.4,1.4v2.5c0,0.3,0.1,0.5,0.2,0.6s0.3,0.2,0.5,0.2s0.4,0,0.6-0.1v0.1H1780.7z M1778.8,163.5h-0.4 c-0.9,0-1.5,0.1-1.8,0.3c-0.4,0.2-0.5,0.4-0.5,0.7s0.1,0.5,0.3,0.7s0.5,0.3,0.8,0.3s0.6-0.1,0.9-0.2c0.3-0.2,0.5-0.4,0.7-0.6V163.5z  M1786,159.2c-0.1-0.4-0.2-0.7-0.5-0.9c-0.2-0.2-0.6-0.3-1-0.3c-0.6,0-1.1,0.2-1.3,0.6s-0.4,1-0.4,1.8v0.1h3.1 c0.3,0,0.5-0.1,0.6-0.1h0.1v5l0.9,0.1c0.1,0,0.2,0,0.2,0.1l0.1,0.1c0,0.1,0,0.2-0.1,0.3h-2.9v-0.3c0.3-0.1,0.6-0.2,1.1-0.3V161h-3.1 v4.4l0.7,0.1c0.1,0,0.2,0,0.2,0.1l0.1,0.1c0,0.1,0,0.1-0.1,0.3h-2.7v-0.3c0.3-0.1,0.7-0.2,1.1-0.3V161h-1.2v-0.3 c0.1,0,0.3-0.1,0.5-0.1c0.2-0.1,0.5-0.1,0.6-0.1c0-1,0.3-1.8,0.7-2.3c0.4-0.5,1.1-0.8,1.9-0.8c0.4,0,0.7,0.1,0.9,0.2 c0.3,0.1,0.5,0.3,0.6,0.4s0.2,0.4,0.2,0.6C1786.5,159.1,1786.4,159.2,1786,159.2L1786,159.2z M1790.3,166.2c-0.6,0-1.1-0.1-1.5-0.3 c-0.1-0.3-0.1-0.7-0.1-1.1c0-0.4,0.1-0.6,0.3-0.6h0.1c0,0.5,0.1,0.9,0.3,1.2c0.2,0.2,0.5,0.3,1,0.3c0.4,0,0.8-0.1,1-0.3 s0.4-0.4,0.4-0.7c0-0.2-0.1-0.4-0.2-0.5s-0.4-0.3-0.7-0.4l-0.8-0.3c-0.4-0.2-0.7-0.4-0.9-0.6c-0.2-0.2-0.3-0.5-0.3-0.8 c0-0.5,0.2-0.8,0.5-1.1c0.4-0.3,0.8-0.4,1.4-0.4c0.3,0,0.5,0,0.8,0.1s0.5,0.1,0.7,0.2c0,0.1,0,0.3,0,0.5c0,0.3,0,0.5-0.1,0.6 s-0.1,0.2-0.3,0.2h-0.1V162c0-0.7-0.4-1-1.2-1c-0.4,0-0.7,0.1-0.9,0.2c-0.2,0.2-0.3,0.4-0.3,0.7c0,0.2,0.1,0.4,0.2,0.5 s0.3,0.3,0.6,0.4l0.9,0.4c0.5,0.2,0.8,0.4,1,0.6c0.2,0.2,0.3,0.5,0.3,0.8c0,0.5-0.2,0.9-0.6,1.2 C1791.4,166,1790.9,166.2,1790.3,166.2z M1803.4,165.6c0.1,0,0.2,0,0.2,0.1l0.1,0.1v0.1v0.1h-2.5v-0.3c0.3-0.1,0.6-0.2,0.9-0.2v-2.9 c0-0.6-0.1-1-0.3-1.2c-0.2-0.2-0.5-0.4-1-0.4c-0.4,0-0.7,0.1-1,0.2c-0.3,0.2-0.6,0.4-0.9,0.7c0,0.2,0,0.3,0,0.4v3.1l0.7,0.1 c0.1,0,0.2,0,0.2,0.1l0.1,0.1v0.1v0.1h-2.5v-0.3c0.2-0.1,0.5-0.2,0.9-0.2v-2.9c0-0.6-0.1-1-0.3-1.2c-0.2-0.2-0.5-0.4-1-0.4 c-0.7,0-1.3,0.3-1.8,1v3.5l0.6,0.1c0.1,0,0.2,0,0.2,0.1c0,0,0.1,0.1,0.1,0.2v0.1v0.1h-2.5v-0.3c0.3-0.1,0.6-0.2,1-0.2v-4.3l-1.1-0.1 V161c0-0.1,0-0.1,0.1-0.1c0,0,0.1-0.1,0.3-0.1c0.1,0,0.3-0.1,0.6-0.1c0.2,0,0.5-0.1,0.7-0.1l0.1,0.9c0.3-0.4,0.7-0.6,1-0.8 s0.7-0.2,1.1-0.2c0.8,0,1.4,0.3,1.6,1c0.3-0.4,0.7-0.6,1-0.8s0.7-0.2,1.1-0.2c0.6,0,1,0.2,1.3,0.5s0.5,0.8,0.5,1.5v3.1L1803.4,165.6 z M1804.4,163.4c0-0.6,0.1-1.1,0.3-1.6c0.2-0.4,0.5-0.8,1-1c0.4-0.2,0.9-0.3,1.4-0.3c0.8,0,1.4,0.2,1.9,0.7s0.7,1.2,0.7,2.1 c0,0.6-0.1,1.1-0.3,1.6c-0.2,0.4-0.5,0.8-1,1s-0.9,0.3-1.4,0.3c-0.8,0-1.4-0.2-1.9-0.7C1804.6,164.9,1804.4,164.2,1804.4,163.4z  M1805.1,163.2c0,0.7,0.2,1.3,0.5,1.8s0.9,0.7,1.5,0.7s1.1-0.2,1.4-0.6c0.3-0.4,0.5-1,0.5-1.7s-0.2-1.3-0.5-1.8s-0.9-0.7-1.5-0.7 s-1.1,0.2-1.4,0.6C1805.2,162,1805.1,162.5,1805.1,163.2z M1814.9,166.2c-0.6,0-1.1-0.1-1.5-0.3c-0.1-0.3-0.1-0.7-0.1-1.1 c0-0.4,0.1-0.6,0.3-0.6h0.1c0,0.5,0.1,0.9,0.3,1.2c0.2,0.2,0.5,0.3,1,0.3c0.4,0,0.8-0.1,1-0.3s0.4-0.4,0.4-0.7 c0-0.2-0.1-0.4-0.2-0.5s-0.4-0.3-0.7-0.4l-0.8-0.3c-0.4-0.2-0.7-0.4-0.9-0.6c-0.2-0.2-0.3-0.5-0.3-0.8c0-0.5,0.2-0.8,0.5-1.1 c0.4-0.3,0.8-0.4,1.4-0.4c0.3,0,0.5,0,0.8,0.1s0.5,0.1,0.7,0.2c0,0.1,0,0.3,0,0.5c0,0.3,0,0.5-0.1,0.6s-0.1,0.2-0.3,0.2h-0.1V162 c0-0.7-0.4-1-1.2-1c-0.4,0-0.7,0.1-0.9,0.2c-0.2,0.2-0.3,0.4-0.3,0.7c0,0.2,0.1,0.4,0.2,0.5s0.3,0.3,0.6,0.4l0.9,0.4 c0.5,0.2,0.8,0.4,1,0.6c0.2,0.2,0.3,0.5,0.3,0.8c0,0.5-0.2,0.9-0.6,1.2C1816.1,166,1815.6,166.2,1814.9,166.2z M1818.8,163.2 c0,0.8,0.2,1.4,0.6,1.8c0.4,0.4,0.9,0.6,1.6,0.6c0.3,0,0.6,0,0.9-0.1s0.6-0.1,0.9-0.2v0.2c0,0.2-0.2,0.4-0.5,0.6 c-0.3,0.1-0.8,0.2-1.3,0.2c-1.8,0-2.7-0.9-2.7-2.8c0-0.9,0.2-1.7,0.7-2.2s1.1-0.8,1.9-0.8c0.6,0,1.1,0.2,1.5,0.5 c0.4,0.4,0.5,0.9,0.5,1.5c0,0.3,0,0.6-0.1,0.7H1818.8z M1822.1,162.7c0-1.2-0.5-1.7-1.5-1.7c-0.5,0-0.9,0.1-1.2,0.4 c-0.3,0.3-0.5,0.7-0.5,1.3H1822.1L1822.1,162.7z M1828.5,165.4c0,0.1-0.1,0.3-0.3,0.4c-0.2,0.1-0.4,0.2-0.7,0.3 c-0.3,0.1-0.6,0.1-0.9,0.1c-0.9,0-1.5-0.2-2-0.7s-0.7-1.1-0.7-2c0-0.6,0.1-1.2,0.3-1.6c0.2-0.5,0.5-0.8,0.9-1s0.9-0.4,1.4-0.4 s1,0.1,1.3,0.3s0.5,0.5,0.5,0.8c0,0.2,0,0.3-0.1,0.4c-0.1,0.1-0.2,0.2-0.4,0.2h-0.1c0-0.4-0.1-0.7-0.3-0.9c-0.2-0.2-0.5-0.3-1-0.3 c-0.6,0-1,0.2-1.4,0.6c-0.3,0.4-0.5,1-0.5,1.7c0,0.8,0.2,1.3,0.6,1.7s0.9,0.6,1.7,0.6C1827.3,165.6,1827.9,165.5,1828.5,165.4 L1828.5,165.4L1828.5,165.4z M1835.9,165.6c0,0,0,0.1,0,0.2c0,0.1-0.1,0.1-0.3,0.2c-0.2,0-0.4,0.1-0.6,0.1c-0.3,0-0.5,0-0.8,0 l-0.1-1c-0.3,0.3-0.6,0.6-1,0.8s-0.8,0.3-1.2,0.3c-0.6,0-1-0.2-1.3-0.5s-0.4-0.8-0.4-1.5v-3l-1.1-0.1c0-0.1,0-0.1,0-0.1 c0-0.1,0-0.1,0.1-0.1s0.2-0.1,0.3-0.1c0.5-0.1,1-0.2,1.4-0.2l-0.1,1v2.7c0,0.5,0.1,0.8,0.3,1.1c0.2,0.2,0.5,0.3,1,0.3 c0.4,0,0.8-0.1,1.1-0.3c0.3-0.2,0.6-0.4,0.9-0.8v-3.4l-1-0.1c0-0.1,0-0.1,0-0.1c0-0.1,0-0.1,0.1-0.1s0.2-0.1,0.3-0.1 c0.4-0.1,0.9-0.2,1.4-0.2l-0.1,1v4L1835.9,165.6z M1840.5,166.1v-0.3c0.3-0.1,0.6-0.2,0.9-0.2v-2.9c0-0.6-0.1-1-0.3-1.2 c-0.2-0.2-0.6-0.4-1.1-0.4c-0.7,0-1.4,0.3-1.9,1v3.5l0.7,0.1c0.1,0,0.2,0,0.2,0.1l0.1,0.1v0.1v0.1h-2.6v-0.3c0.3-0.1,0.6-0.2,1-0.2 v-4.3l-1.1-0.1c0,0,0,0,0-0.1s0,0,0-0.1s0-0.1,0.1-0.1c0,0,0.1-0.1,0.3-0.1c0.1,0,0.3-0.1,0.6-0.1c0.2,0,0.5-0.1,0.7-0.1l0.1,0.9 c0.3-0.4,0.7-0.6,1-0.8s0.7-0.2,1.2-0.2c0.6,0,1,0.2,1.3,0.5s0.5,0.8,0.5,1.5v3.1l0.7,0.1c0.1,0,0.2,0,0.2,0.1l0.1,0.1v0.1v0.1 L1840.5,166.1L1840.5,166.1z M1848.7,165.5l1.3,0.1c0,0,0,0.1,0,0.2c0,0.1-0.1,0.1-0.3,0.2c-0.2,0-0.4,0.1-0.6,0.1 c-0.3,0-0.5,0-0.8,0l-0.1-0.8c-0.2,0.3-0.5,0.5-0.9,0.6c-0.3,0.2-0.7,0.2-1.1,0.2c-0.8,0-1.4-0.2-1.8-0.7s-0.6-1.1-0.6-2 c0-0.6,0.1-1.2,0.4-1.6c0.2-0.5,0.6-0.8,1-1.1c0.4-0.2,0.9-0.4,1.5-0.4c0.5,0,1,0.1,1.5,0.2v-2.4l-1.1-0.1c0,0,0-0.1,0-0.2 c0,0,0-0.1,0.1-0.1c0,0,0.1-0.1,0.3-0.1c0.2-0.1,0.4-0.1,0.7-0.1c0.3,0,0.5-0.1,0.8-0.1v8.1H1848.7z M1848,161.3 c-0.3-0.1-0.6-0.2-0.8-0.2c-0.2,0-0.5-0.1-0.7-0.1c-0.4,0-0.8,0.1-1.1,0.3c-0.3,0.2-0.6,0.5-0.7,0.8s-0.3,0.8-0.3,1.2 c0,1.5,0.6,2.3,1.9,2.3c0.3,0,0.6-0.1,0.9-0.2c0.3-0.2,0.6-0.3,0.8-0.6L1848,161.3L1848,161.3z M1856,165.7c0,0.1-0.1,0.2-0.3,0.3 c-0.2,0.1-0.4,0.1-0.7,0.1c-0.4,0-0.7-0.3-0.8-0.9c-0.2,0.3-0.5,0.5-0.8,0.7s-0.7,0.2-1,0.2c-0.5,0-0.9-0.1-1.2-0.4 c-0.3-0.3-0.5-0.7-0.5-1.1c0-0.3,0.1-0.6,0.4-0.9c0.2-0.2,0.6-0.4,1.1-0.5s1.2-0.2,2-0.2v-0.6c0-0.5-0.1-0.9-0.3-1.1 c-0.2-0.2-0.5-0.3-0.9-0.3c-0.9,0-1.4,0.4-1.4,1.3h-0.1c-0.4,0-0.6-0.1-0.6-0.4c0-0.2,0.1-0.5,0.4-0.7c0.2-0.2,0.5-0.4,0.9-0.5 s0.7-0.2,1.1-0.2c0.5,0,0.9,0.2,1.2,0.5c0.3,0.3,0.4,0.8,0.4,1.4v2.5c0,0.3,0.1,0.5,0.2,0.6s0.3,0.2,0.5,0.2s0.4,0,0.6-0.1v0.1H1856 z M1854.1,163.5h-0.4c-0.9,0-1.5,0.1-1.8,0.3c-0.4,0.2-0.5,0.4-0.5,0.7s0.1,0.5,0.3,0.7c0.2,0.2,0.5,0.3,0.8,0.3s0.6-0.1,0.9-0.2 c0.3-0.2,0.5-0.4,0.7-0.6V163.5z M1852.4,159.6c-0.1,0-0.1-0.1-0.1-0.2c0-0.1,0-0.2,0.1-0.3l1.3-1.9l0.2,0.1 c0.1,0.1,0.2,0.1,0.2,0.2s0.1,0.1,0.1,0.2c0,0.1-0.1,0.3-0.3,0.6C1853.7,158.6,1853.2,159,1852.4,159.6L1852.4,159.6z M1858.1,161.7 L1858.1,161.7c0.4-0.5,0.7-0.8,1-1s0.6-0.3,1-0.3c0.2,0,0.4,0,0.5,0.1s0.2,0.2,0.2,0.4c0,0.1-0.1,0.3-0.2,0.5 c-0.3-0.2-0.5-0.3-0.8-0.3c-0.5,0-1.1,0.4-1.6,1.2v3.2l1.1,0.1c0.2,0,0.2,0.1,0.2,0.2c0,0.1,0,0.2-0.1,0.3h-3v-0.3 c0.2-0.1,0.6-0.2,1-0.3v-4.3l-1.1-0.1c0,0,0,0,0-0.1s0,0,0-0.1s0-0.1,0.1-0.1c0,0,0.1-0.1,0.3-0.1c0.1,0,0.3-0.1,0.6-0.1 c0.2,0,0.5-0.1,0.7-0.1L1858.1,161.7z M1861.5,166.1v-0.3c0.3-0.1,0.6-0.2,1.1-0.3v-4.3l-1.1-0.1V161v-0.1c0,0,0-0.1,0.1-0.1 s0.1-0.1,0.3-0.1c0.2-0.1,0.4-0.1,0.7-0.1c0.3,0,0.5-0.1,0.7-0.1h0.1v5l0.9,0.1c0.1,0,0.2,0,0.2,0.1l0.1,0.1c0,0.1,0,0.2-0.1,0.3 L1861.5,166.1L1861.5,166.1z M1862.4,158.5c0-0.2,0-0.3,0.1-0.4c0.1-0.1,0.2-0.1,0.4-0.1c0.2,0,0.3,0,0.4,0.1s0.1,0.2,0.1,0.4 s0,0.3-0.1,0.4c-0.1,0.1-0.2,0.1-0.4,0.1c-0.2,0-0.3,0-0.4-0.1C1862.4,158.8,1862.4,158.7,1862.4,158.5z M1865.2,163.4 c0-0.6,0.1-1.1,0.3-1.6c0.2-0.4,0.5-0.8,1-1c0.4-0.2,0.9-0.3,1.4-0.3c0.8,0,1.4,0.2,1.9,0.7s0.7,1.2,0.7,2.1c0,0.6-0.1,1.1-0.3,1.6 c-0.2,0.4-0.5,0.8-1,1s-0.9,0.3-1.4,0.3c-0.8,0-1.4-0.2-1.9-0.7C1865.4,164.9,1865.2,164.2,1865.2,163.4z M1865.9,163.2 c0,0.7,0.2,1.3,0.5,1.8c0.4,0.4,0.9,0.7,1.5,0.7s1.1-0.2,1.4-0.6c0.3-0.4,0.5-1,0.5-1.7s-0.2-1.3-0.5-1.8c-0.4-0.4-0.9-0.7-1.5-0.7 s-1.1,0.2-1.4,0.6C1866,162,1865.9,162.5,1865.9,163.2z M1871.2,168c-0.1,0-0.2-0.1-0.3-0.2c0.2-0.2,0.4-0.5,0.6-0.8 s0.3-0.6,0.4-0.9c-0.1-0.3-0.1-0.6-0.3-0.9c0.2-0.1,0.5-0.2,0.6-0.2s0.3,0.1,0.3,0.2c0.1,0.1,0.1,0.2,0.1,0.4c0,0.3-0.1,0.6-0.3,1 c-0.2,0.4-0.4,0.7-0.7,1C1871.6,167.8,1871.4,168,1871.2,168L1871.2,168z M1881.9,165.7c0,0.1-0.1,0.2-0.3,0.3 c-0.2,0.1-0.4,0.1-0.7,0.1c-0.4,0-0.7-0.3-0.8-0.9c-0.2,0.3-0.5,0.5-0.8,0.7s-0.7,0.2-1,0.2c-0.5,0-0.9-0.1-1.2-0.4 c-0.3-0.3-0.5-0.7-0.5-1.1c0-0.3,0.1-0.6,0.4-0.9c0.2-0.2,0.6-0.4,1.1-0.5s1.2-0.2,2-0.2v-0.6c0-0.5-0.1-0.9-0.3-1.1 c-0.2-0.2-0.5-0.3-0.9-0.3c-0.9,0-1.4,0.4-1.4,1.3h-0.1c-0.4,0-0.6-0.1-0.6-0.4c0-0.2,0.1-0.5,0.4-0.7c0.2-0.2,0.5-0.4,0.9-0.5 s0.7-0.2,1.1-0.2c0.5,0,0.9,0.2,1.2,0.5c0.3,0.3,0.4,0.8,0.4,1.4v2.5c0,0.3,0.1,0.5,0.2,0.6s0.3,0.2,0.5,0.2s0.4,0,0.6-0.1v0.1 H1881.9z M1880,163.5h-0.4c-0.9,0-1.5,0.1-1.8,0.3c-0.4,0.2-0.5,0.4-0.5,0.7s0.1,0.5,0.3,0.7s0.5,0.3,0.8,0.3s0.6-0.1,0.9-0.2 c0.3-0.2,0.5-0.4,0.7-0.6V163.5z M1886.7,166.2c-0.6,0-1.1-0.1-1.5-0.3c-0.1-0.3-0.1-0.7-0.1-1.1c0-0.4,0.1-0.6,0.3-0.6h0.1 c0,0.5,0.1,0.9,0.3,1.2c0.2,0.2,0.5,0.3,1,0.3c0.4,0,0.8-0.1,1-0.3s0.4-0.4,0.4-0.7c0-0.2-0.1-0.4-0.2-0.5s-0.4-0.3-0.7-0.4 l-0.8-0.3c-0.4-0.2-0.7-0.4-0.9-0.6c-0.2-0.2-0.3-0.5-0.3-0.8c0-0.5,0.2-0.8,0.5-1.1c0.4-0.3,0.8-0.4,1.4-0.4c0.3,0,0.5,0,0.8,0.1 s0.5,0.1,0.7,0.2c0,0.1,0,0.3,0,0.5c0,0.3,0,0.5-0.1,0.6s-0.1,0.2-0.3,0.2h-0.1V162c0-0.7-0.4-1-1.2-1c-0.4,0-0.7,0.1-0.9,0.2 c-0.2,0.2-0.3,0.4-0.3,0.7c0,0.2,0.1,0.4,0.2,0.5s0.3,0.3,0.6,0.4l0.9,0.4c0.5,0.2,0.8,0.4,1,0.6c0.2,0.2,0.3,0.5,0.3,0.8 c0,0.5-0.2,0.9-0.6,1.2C1887.8,166,1887.3,166.2,1886.7,166.2z M1890.6,163.2c0,0.8,0.2,1.4,0.6,1.8c0.4,0.4,0.9,0.6,1.6,0.6 c0.3,0,0.6,0,0.9-0.1s0.6-0.1,0.9-0.2v0.2c0,0.2-0.2,0.4-0.5,0.6c-0.3,0.1-0.8,0.2-1.3,0.2c-1.8,0-2.7-0.9-2.7-2.8 c0-0.9,0.2-1.7,0.7-2.2s1.1-0.8,1.9-0.8c0.6,0,1.1,0.2,1.5,0.5c0.4,0.4,0.5,0.9,0.5,1.5c0,0.3,0,0.6-0.1,0.7H1890.6z M1893.9,162.7 c0-1.2-0.5-1.7-1.5-1.7c-0.5,0-0.9,0.1-1.2,0.4c-0.3,0.3-0.5,0.7-0.5,1.3H1893.9L1893.9,162.7z M1905.5,165.6c0.1,0,0.2,0,0.2,0.1 l0.1,0.1v0.1v0.1h-2.5v-0.3c0.3-0.1,0.6-0.2,0.9-0.2v-2.9c0-0.6-0.1-1-0.3-1.2c-0.2-0.2-0.5-0.4-1-0.4c-0.4,0-0.7,0.1-1,0.2 c-0.3,0.2-0.6,0.4-0.9,0.7c0,0.2,0,0.3,0,0.4v3.1l0.7,0.1c0.1,0,0.2,0,0.2,0.1l0.1,0.1v0.1v0.1h-2.5v-0.3c0.2-0.1,0.5-0.2,0.9-0.2 v-2.9c0-0.6-0.1-1-0.3-1.2c-0.2-0.2-0.5-0.4-1-0.4c-0.7,0-1.3,0.3-1.8,1v3.5l0.6,0.1c0.1,0,0.2,0,0.2,0.1c0,0,0.1,0.1,0.1,0.2v0.1 v0.1h-2.5v-0.3c0.3-0.1,0.6-0.2,1-0.2v-4.3l-1.1-0.1V161c0-0.1,0-0.1,0.1-0.1c0,0,0.1-0.1,0.3-0.1c0.1,0,0.3-0.1,0.6-0.1 c0.2,0,0.5-0.1,0.7-0.1l0.1,0.9c0.3-0.4,0.7-0.6,1-0.8s0.7-0.2,1.1-0.2c0.8,0,1.4,0.3,1.6,1c0.3-0.4,0.7-0.6,1-0.8s0.7-0.2,1.1-0.2 c0.6,0,1,0.2,1.3,0.5s0.5,0.8,0.5,1.5v3.1L1905.5,165.6z M1907.2,163.2c0,0.8,0.2,1.4,0.6,1.8c0.4,0.4,0.9,0.6,1.6,0.6 c0.3,0,0.6,0,0.9-0.1s0.6-0.1,0.9-0.2v0.2c0,0.2-0.2,0.4-0.5,0.6c-0.3,0.1-0.8,0.2-1.3,0.2c-1.8,0-2.7-0.9-2.7-2.8 c0-0.9,0.2-1.7,0.7-2.2s1.1-0.8,1.9-0.8c0.6,0,1.1,0.2,1.5,0.5c0.4,0.4,0.5,0.9,0.5,1.5c0,0.3,0,0.6-0.1,0.7H1907.2z M1910.5,162.7 c0-1.2-0.5-1.7-1.5-1.7c-0.5,0-0.9,0.1-1.2,0.4c-0.3,0.3-0.5,0.7-0.5,1.3H1910.5L1910.5,162.7z M1916.2,166.1v-0.3 c0.3-0.1,0.6-0.2,0.9-0.2v-2.9c0-0.6-0.1-1-0.3-1.2c-0.2-0.2-0.6-0.4-1.1-0.4c-0.7,0-1.4,0.3-1.9,1v3.5l0.7,0.1c0.1,0,0.2,0,0.2,0.1 l0.1,0.1v0.1v0.1h-2.6v-0.3c0.3-0.1,0.6-0.2,1-0.2v-4.3l-1.1-0.1c0,0,0,0,0-0.1s0,0,0-0.1s0-0.1,0.1-0.1c0,0,0.1-0.1,0.3-0.1 c0.1,0,0.3-0.1,0.6-0.1c0.2,0,0.5-0.1,0.7-0.1l0.1,0.9c0.3-0.4,0.7-0.6,1-0.8s0.7-0.2,1.2-0.2c0.6,0,1,0.2,1.3,0.5s0.5,0.8,0.5,1.5 v3.1l0.7,0.1c0.1,0,0.2,0,0.2,0.1l0.1,0.1v0.1v0.1L1916.2,166.1L1916.2,166.1z M1920.1,159.8c0-0.3,0.1-0.5,0.2-0.6s0.3-0.2,0.5-0.2 h0.1v1.6h1.8c0.2,0,0.2,0.1,0.2,0.2c0,0.1,0,0.2-0.1,0.4h-1.9v3.4c0,0.4,0.1,0.6,0.2,0.8s0.4,0.2,0.7,0.2c0.2,0,0.4,0,0.7-0.1 c0.3,0,0.5-0.1,0.6-0.1v0.3c0,0.1-0.2,0.3-0.5,0.4c-0.3,0.1-0.7,0.2-1.1,0.2c-0.5,0-0.8-0.1-1-0.3s-0.3-0.6-0.3-1.1v-3.6h-1.2V161 c0.2-0.1,0.6-0.2,1.1-0.2L1920.1,159.8z M1924.5,163.2c0,0.8,0.2,1.4,0.6,1.8c0.4,0.4,0.9,0.6,1.6,0.6c0.3,0,0.6,0,0.9-0.1 s0.6-0.1,0.9-0.2v0.2c0,0.2-0.2,0.4-0.5,0.6c-0.3,0.1-0.8,0.2-1.3,0.2c-1.8,0-2.7-0.9-2.7-2.8c0-0.9,0.2-1.7,0.7-2.2 s1.1-0.8,1.9-0.8c0.6,0,1.1,0.2,1.5,0.5c0.4,0.4,0.5,0.9,0.5,1.5c0,0.3,0,0.6-0.1,0.7H1924.5z M1927.8,162.7c0-1.2-0.5-1.7-1.5-1.7 c-0.5,0-0.9,0.1-1.2,0.4c-0.3,0.3-0.5,0.7-0.5,1.3H1927.8L1927.8,162.7z M1931.6,166.1v-0.3c0.3-0.1,0.6-0.2,1.1-0.3v-4.3l-1.1-0.1 V161v-0.1c0,0,0-0.1,0.1-0.1s0.1-0.1,0.3-0.1c0.2-0.1,0.4-0.1,0.7-0.1c0.3,0,0.5-0.1,0.7-0.1h0.1v5l0.9,0.1c0.1,0,0.2,0,0.2,0.1 l0.1,0.1c0,0.1,0,0.2-0.1,0.3L1931.6,166.1L1931.6,166.1z M1932.4,158.5c0-0.2,0-0.3,0.1-0.4c0.1-0.1,0.2-0.1,0.4-0.1 c0.2,0,0.3,0,0.4,0.1s0.1,0.2,0.1,0.4s0,0.3-0.1,0.4c-0.1,0.1-0.2,0.1-0.4,0.1c-0.2,0-0.3,0-0.4-0.1 C1932.5,158.8,1932.4,158.7,1932.4,158.5z M1937.1,166.2c-0.6,0-1.1-0.1-1.5-0.3c-0.1-0.3-0.1-0.7-0.1-1.1c0-0.4,0.1-0.6,0.3-0.6 h0.1c0,0.5,0.1,0.9,0.3,1.2c0.2,0.2,0.5,0.3,1,0.3c0.4,0,0.8-0.1,1-0.3s0.4-0.4,0.4-0.7c0-0.2-0.1-0.4-0.2-0.5s-0.4-0.3-0.7-0.4 l-0.8-0.3c-0.4-0.2-0.7-0.4-0.9-0.6c-0.2-0.2-0.3-0.5-0.3-0.8c0-0.5,0.2-0.8,0.5-1.1c0.4-0.3,0.8-0.4,1.4-0.4c0.3,0,0.5,0,0.8,0.1 s0.5,0.1,0.7,0.2c0,0.1,0,0.3,0,0.5c0,0.3,0,0.5-0.1,0.6s-0.1,0.2-0.3,0.2h-0.1V162c0-0.7-0.4-1-1.2-1c-0.4,0-0.7,0.1-0.9,0.2 c-0.2,0.2-0.3,0.4-0.3,0.7c0,0.2,0.1,0.4,0.2,0.5s0.3,0.3,0.6,0.4l0.9,0.4c0.5,0.2,0.8,0.4,1,0.6c0.2,0.2,0.3,0.5,0.3,0.8 c0,0.5-0.2,0.9-0.6,1.2C1938.3,166,1937.8,166.2,1937.1,166.2z M1940.4,163.4c0-0.6,0.1-1.1,0.3-1.6c0.2-0.4,0.5-0.8,1-1 c0.4-0.2,0.9-0.3,1.4-0.3c0.8,0,1.4,0.2,1.9,0.7s0.7,1.2,0.7,2.1c0,0.6-0.1,1.1-0.3,1.6c-0.2,0.4-0.5,0.8-1,1 c-0.4,0.2-0.9,0.3-1.4,0.3c-0.8,0-1.4-0.2-1.9-0.7C1940.6,164.9,1940.4,164.2,1940.4,163.4z M1941,163.2c0,0.7,0.2,1.3,0.5,1.8 c0.4,0.4,0.9,0.7,1.5,0.7s1.1-0.2,1.4-0.6c0.3-0.4,0.5-1,0.5-1.7s-0.2-1.3-0.5-1.8c-0.4-0.4-0.9-0.7-1.5-0.7s-1.1,0.2-1.4,0.6 C1941.2,162,1941,162.5,1941,163.2z M1948.9,165.6c0.1,0,0.2,0,0.2,0.1l0.1,0.1c0,0.1,0,0.1-0.1,0.3h-2.9v-0.3 c0.3-0.1,0.7-0.2,1.1-0.3v-7.3l-1.1-0.1c0,0,0-0.1,0-0.2c0,0,0-0.1,0.1-0.1c0,0,0.1-0.1,0.3-0.1c0.2-0.1,0.4-0.1,0.7-0.1 c0.3,0,0.5-0.1,0.8-0.1v7.9L1948.9,165.6z M1955.2,165.7c0,0.1-0.1,0.2-0.3,0.3c-0.2,0.1-0.4,0.1-0.7,0.1c-0.4,0-0.7-0.3-0.8-0.9 c-0.2,0.3-0.5,0.5-0.8,0.7s-0.7,0.2-1,0.2c-0.5,0-0.9-0.1-1.2-0.4c-0.3-0.3-0.5-0.7-0.5-1.1c0-0.3,0.1-0.6,0.4-0.9 c0.2-0.2,0.6-0.4,1.1-0.5s1.2-0.2,2-0.2v-0.6c0-0.5-0.1-0.9-0.3-1.1c-0.2-0.2-0.5-0.3-0.9-0.3c-0.9,0-1.4,0.4-1.4,1.3h-0.1 c-0.4,0-0.6-0.1-0.6-0.4c0-0.2,0.1-0.5,0.4-0.7c0.2-0.2,0.5-0.4,0.9-0.5s0.7-0.2,1.1-0.2c0.5,0,0.9,0.2,1.2,0.5 c0.3,0.3,0.4,0.8,0.4,1.4v2.5c0,0.3,0.1,0.5,0.2,0.6s0.3,0.2,0.5,0.2s0.4,0,0.6-0.1v0.1H1955.2z M1953.4,163.5h-0.4 c-0.9,0-1.5,0.1-1.8,0.3c-0.4,0.2-0.5,0.4-0.5,0.7s0.1,0.5,0.3,0.7c0.2,0.2,0.5,0.3,0.8,0.3s0.6-0.1,0.9-0.2 c0.3-0.2,0.5-0.4,0.7-0.6V163.5z M1960.7,165.5l1.3,0.1c0,0,0,0.1,0,0.2c0,0.1-0.1,0.1-0.3,0.2c-0.2,0-0.4,0.1-0.6,0.1 c-0.3,0-0.5,0-0.8,0l-0.1-0.8c-0.2,0.3-0.5,0.5-0.9,0.6c-0.3,0.2-0.7,0.2-1.1,0.2c-0.8,0-1.4-0.2-1.8-0.7s-0.6-1.1-0.6-2 c0-0.6,0.1-1.2,0.4-1.6c0.2-0.5,0.6-0.8,1-1.1c0.4-0.2,0.9-0.4,1.5-0.4c0.5,0,1,0.1,1.5,0.2v-2.4l-1.1-0.1c0,0,0-0.1,0-0.2 c0,0,0-0.1,0.1-0.1c0,0,0.1-0.1,0.3-0.1c0.2-0.1,0.4-0.1,0.7-0.1c0.3,0,0.5-0.1,0.8-0.1v8.1H1960.7z M1960.1,161.3 c-0.3-0.1-0.6-0.2-0.8-0.2c-0.2,0-0.5-0.1-0.7-0.1c-0.4,0-0.8,0.1-1.1,0.3c-0.3,0.2-0.6,0.5-0.7,0.8c-0.2,0.4-0.3,0.8-0.3,1.2 c0,1.5,0.6,2.3,1.9,2.3c0.3,0,0.6-0.1,0.9-0.2c0.3-0.2,0.6-0.3,0.8-0.6L1960.1,161.3L1960.1,161.3z M1968.1,165.7 c0,0.1-0.1,0.2-0.3,0.3c-0.2,0.1-0.4,0.1-0.7,0.1c-0.4,0-0.7-0.3-0.8-0.9c-0.2,0.3-0.5,0.5-0.8,0.7s-0.7,0.2-1,0.2 c-0.5,0-0.9-0.1-1.2-0.4c-0.3-0.3-0.5-0.7-0.5-1.1c0-0.3,0.1-0.6,0.4-0.9c0.2-0.2,0.6-0.4,1.1-0.5s1.2-0.2,2-0.2v-0.6 c0-0.5-0.1-0.9-0.3-1.1c-0.2-0.2-0.5-0.3-0.9-0.3c-0.9,0-1.4,0.4-1.4,1.3h-0.1c-0.4,0-0.6-0.1-0.6-0.4c0-0.2,0.1-0.5,0.4-0.7 c0.2-0.2,0.5-0.4,0.9-0.5s0.7-0.2,1.1-0.2c0.5,0,0.9,0.2,1.2,0.5c0.3,0.3,0.4,0.8,0.4,1.4v2.5c0,0.3,0.1,0.5,0.2,0.6 s0.3,0.2,0.5,0.2s0.4,0,0.6-0.1v0.1H1968.1z M1966.2,163.5h-0.4c-0.9,0-1.5,0.1-1.8,0.3c-0.4,0.2-0.5,0.4-0.5,0.7s0.1,0.5,0.3,0.7 c0.2,0.2,0.5,0.3,0.8,0.3s0.6-0.1,0.9-0.2c0.3-0.2,0.5-0.4,0.7-0.6V163.5z"></path><text transform="matrix(1 0 0 1 1593.0271 184.0726)" class="st4" style="font-family:'Bookerly-Light'; font-size:11px;">do t</text><text transform="matrix(1 0 0 1 1611.3271 184.0726)" class="st4" style="font-family:'Bookerly-Light'; font-size:11px;">r</text><text transform="matrix(1 0 0 1 1615.3271 184.0726)" class="st4" style="font-family:'Bookerly-Light'; font-size:11px;">i</text><text transform="matrix(1 0 0 1 1617.8271 184.0726)" class="st4" style="font-family:'Bookerly-Light'; font-size:11px;">g</text><text transform="matrix(1 0 0 1 1624.0271 184.0726)" class="st4" style="font-family:'Bookerly-Light'; font-size:11px;">o</text><text transform="matrix(1 0 0 1 1629.8271 184.0726)" class="st4" style="font-family:'Bookerly-Light'; font-size:11px;">.</text><text transform="matrix(1 0 0 1 1632.1271 184.0726)" class="st4" style="font-family:'Bookerly-Light'; font-size:11px;"> </text><text transform="matrix(1 0 0 1 1634.5271 184.0726)" class="st4" style="font-family:'Bookerly-Light'; font-size:11px;">El</text><text transform="matrix(1 0 0 1 1642.5271 184.0726)" class="st4" style="font-family:'Bookerly-Light'; font-size:11px;">a </text><text transform="matrix(1 0 0 1 1650.2271 184.0726)" class="st4" style="font-family:'Bookerly-Light'; font-size:11px;">tamb</text><text transform="matrix(1 0 0 1 1674.7271 184.0726)" class="st4" style="font-family:'Bookerly-Light'; font-size:11px;">é</text><text transform="matrix(1 0 0 1 1680.4271 184.0726)" class="st4" style="font-family:'Bookerly-Light'; font-size:11px;">m</text><text transform="matrix(1 0 0 1 1689.6271 184.0726)" class="st4" style="font-family:'Bookerly-Light'; font-size:11px;"> </text><text transform="matrix(1 0 0 1 1691.9271 184.0726)" class="st4" style="font-family:'Bookerly-Light'; font-size:11px;">r</text><text transform="matrix(1 0 0 1 1695.4271 184.0726)" class="st4" style="font-family:'Bookerly-Light'; font-size:11px;">ep</text><text transform="matrix(1 0 0 1 1707.2271 184.0726)" class="st4" style="font-family:'Bookerly-Light'; font-size:11px;">r</text><text transform="matrix(1 0 0 1 1710.6271 184.0726)" class="st4" style="font-family:'Bookerly-Light'; font-size:11px;">e</text><text transform="matrix(1 0 0 1 1716.3271 184.0726)" class="st4" style="font-family:'Bookerly-Light'; font-size:11px;">s</text><text transform="matrix(1 0 0 1 1720.7271 184.0726)" class="st4" style="font-family:'Bookerly-Light'; font-size:11px;">e</text><text transform="matrix(1 0 0 1 1726.3271 184.0726)" class="st4" style="font-family:'Bookerly-Light'; font-size:11px;">n</text><text transform="matrix(1 0 0 1 1732.3271 184.0726)" class="st4" style="font-family:'Bookerly-Light'; font-size:11px;">ta os</text><text transform="matrix(1 0 0 1 1754.2271 184.0726)" class="st4" style="font-family:'Bookerly-Light'; font-size:11px;"> </text><text transform="matrix(1 0 0 1 1756.5271 184.0726)" class="st4" style="font-family:'Bookerly-Light'; font-size:11px;">v</text><text transform="matrix(1 0 0 1 1761.8271 184.0726)" class="st4" style="font-family:'Bookerly-Light'; font-size:11px;">a</text><text transform="matrix(1 0 0 1 1767.1271 184.0726)" class="st4" style="font-family:'Bookerly-Light'; font-size:11px;">lo</text><text transform="matrix(1 0 0 1 1775.9271 184.0726)" class="st4" style="font-family:'Bookerly-Light'; font-size:11px;">r</text><text transform="matrix(1 0 0 1 1779.3271 184.0726)" class="st4" style="font-family:'Bookerly-Light'; font-size:11px;">e</text><text transform="matrix(1 0 0 1 1784.9271 184.0726)" class="st4" style="font-family:'Bookerly-Light'; font-size:11px;">s</text><text transform="matrix(1 0 0 1 1789.3271 184.0726)" class="st4" style="font-family:'Bookerly-Light'; font-size:11px;"> d</text><text transform="matrix(1 0 0 1 1797.9271 184.0726)" class="st4" style="font-family:'Bookerly-Light'; font-size:11px;">a </text><text transform="matrix(1 0 0 1 1805.6271 184.0726)" class="st4" style="font-family:'Bookerly-Light'; font-size:11px;">e</text><text transform="matrix(1 0 0 1 1811.2271 184.0726)" class="st4" style="font-family:'Bookerly-Light'; font-size:11px;">m</text><text transform="matrix(1 0 0 1 1820.4271 184.0726)" class="st4" style="font-family:'Bookerly-Light'; font-size:11px;">p</text><text transform="matrix(1 0 0 1 1826.7271 184.0726)" class="st4" style="font-family:'Bookerly-Light'; font-size:11px;">r</text><text transform="matrix(1 0 0 1 1830.1271 184.0726)" class="st4" style="font-family:'Bookerly-Light'; font-size:11px;">e</text><text transform="matrix(1 0 0 1 1835.8271 184.0726)" class="st4" style="font-family:'Bookerly-Light'; font-size:11px;">s</text><text transform="matrix(1 0 0 1 1840.1271 184.0726)" class="st4" style="font-family:'Bookerly-Light'; font-size:11px;">a </text><text transform="matrix(1 0 0 1 1847.8271 184.0726)" class="st4" style="font-family:'Bookerly-Light'; font-size:11px;">e</text><text transform="matrix(1 0 0 1 1853.327 184.0726)" class="st4" style="font-family:'Bookerly-Light'; font-size:11px;">, </text><text transform="matrix(1 0 0 1 1858.0271 184.0726)" class="st4" style="font-family:'Bookerly-Light'; font-size:11px;">d</text><text transform="matrix(1 0 0 1 1864.2272 184.0726)" class="st4" style="font-family:'Bookerly-Light'; font-size:11px;">e</text><text transform="matrix(1 0 0 1 1869.7272 184.0726)" class="st4" style="font-family:'Bookerly-Light'; font-size:11px;">v</text><text transform="matrix(1 0 0 1 1875.327 184.0726)" class="st4" style="font-family:'Bookerly-Light'; font-size:11px;">i</text><text transform="matrix(1 0 0 1 1877.9271 184.0726)" class="st4" style="font-family:'Bookerly-Light'; font-size:11px;">d</text><text transform="matrix(1 0 0 1 1884.2272 184.0726)" class="st4" style="font-family:'Bookerly-Light'; font-size:11px;">o</text><text transform="matrix(1 0 0 1 1890.2272 184.0726)" class="st4" style="font-family:'Bookerly-Light'; font-size:11px;"> a</text><text transform="matrix(1 0 0 1 1897.9271 184.0726)" class="st4" style="font-family:'Bookerly-Light'; font-size:11px;"> </text><text transform="matrix(1 0 0 1 1900.327 184.0726)" class="st4" style="font-family:'Bookerly-Light'; font-size:11px;">s</text><text transform="matrix(1 0 0 1 1904.7272 184.0726)" class="st4" style="font-family:'Bookerly-Light'; font-size:11px;">e</text><text transform="matrix(1 0 0 1 1910.4271 184.0726)" class="st4" style="font-family:'Bookerly-Light'; font-size:11px;">u </text><text transform="matrix(1 0 0 1 1918.827 184.0726)" class="st4" style="font-family:'Bookerly-Light'; font-size:11px;">f</text><text transform="matrix(1 0 0 1 1921.9271 184.0726)" class="st4" style="font-family:'Bookerly-Light'; font-size:11px;">o</text><text transform="matrix(1 0 0 1 1928.0271 184.0726)" class="st4" style="font-family:'Bookerly-Light'; font-size:11px;">r</text><text transform="matrix(1 0 0 1 1931.827 184.0726)" class="st4" style="font-family:'Bookerly-Light'; font-size:11px;">ma</text><text transform="matrix(1 0 0 1 1946.327 184.0726)" class="st4" style="font-family:'Bookerly-Light'; font-size:11px;">t</text><text transform="matrix(1 0 0 1 1950.0271 184.0726)" class="st4" style="font-family:'Bookerly-Light'; font-size:11px;">o</text><text transform="matrix(1 0 0 1 1955.827 184.0726)" class="st4" style="font-family:'Bookerly-Light'; font-size:11px;">, </text><text transform="matrix(1 0 0 1 1593.0271 202.0682)" class="st4" style="font-family:'Bookerly-Light'; font-size:11px;">p</text><text transform="matrix(1 0 0 1 1599.3271 202.0682)" class="st4" style="font-family:'Bookerly-Light'; font-size:11px;">e</text><text transform="matrix(1 0 0 1 1604.9271 202.0682)" class="st4" style="font-family:'Bookerly-Light'; font-size:11px;">r</text><text transform="matrix(1 0 0 1 1608.8271 202.0682)" class="st4" style="font-family:'Bookerly-Light'; font-size:11px;">m</text><text transform="matrix(1 0 0 1 1618.0271 202.0682)" class="st4" style="font-family:'Bookerly-Light'; font-size:11px;">i</text><text transform="matrix(1 0 0 1 1620.6271 202.0682)" class="st4" style="font-family:'Bookerly-Light'; font-size:11px;">te</text><text transform="matrix(1 0 0 1 1629.8271 202.0682)" class="st4" style="font-family:'Bookerly-Light'; font-size:11px;"> </text><text transform="matrix(1 0 0 1 1632.2271 202.0682)" class="st4" style="font-family:'Bookerly-Light'; font-size:11px;">s</text><text transform="matrix(1 0 0 1 1636.5271 202.0682)" class="st4" style="font-family:'Bookerly-Light'; font-size:11px;">e</text><text transform="matrix(1 0 0 1 1642.2271 202.0682)" class="st4" style="font-family:'Bookerly-Light'; font-size:11px;">r </text><text transform="matrix(1 0 0 1 1648.2271 202.0682)" class="st4" style="font-family:'Bookerly-Light'; font-size:11px;">a</text><text transform="matrix(1 0 0 1 1653.5271 202.0682)" class="st4" style="font-family:'Bookerly-Light'; font-size:11px;">p</text><text transform="matrix(1 0 0 1 1659.7271 202.0682)" class="st4" style="font-family:'Bookerly-Light'; font-size:11px;">lic</text><text transform="matrix(1 0 0 1 1669.9271 202.0682)" class="st4" style="font-family:'Bookerly-Light'; font-size:11px;">a</text><text transform="matrix(1 0 0 1 1675.2271 202.0682)" class="st4" style="font-family:'Bookerly-Light'; font-size:11px;">do</text><text transform="matrix(1 0 0 1 1687.5271 202.0682)" class="st4" style="font-family:'Bookerly-Light'; font-size:11px;"> </text><text transform="matrix(1 0 0 1 1689.8271 202.0682)" class="st4" style="font-family:'Bookerly-Light'; font-size:11px;">de </text><text transform="matrix(1 0 0 1 1704.0271 202.0682)" class="st4" style="font-family:'Bookerly-Light'; font-size:11px;">d</text><text transform="matrix(1 0 0 1 1710.2271 202.0682)" class="st4" style="font-family:'Bookerly-Light'; font-size:11px;">i</text><text transform="matrix(1 0 0 1 1712.3271 202.0682)" class="st4" style="font-family:'Bookerly-Light'; font-size:11px;">v</text><text transform="matrix(1 0 0 1 1717.5271 202.0682)" class="st4" style="font-family:'Bookerly-Light'; font-size:11px;">e</text><text transform="matrix(1 0 0 1 1723.2271 202.0682)" class="st4" style="font-family:'Bookerly-Light'; font-size:11px;">r</text><text transform="matrix(1 0 0 1 1726.6271 202.0682)" class="st4" style="font-family:'Bookerly-Light'; font-size:11px;">s</text><text transform="matrix(1 0 0 1 1730.8271 202.0682)" class="st4" style="font-family:'Bookerly-Light'; font-size:11px;">a</text><text transform="matrix(1 0 0 1 1736.2271 202.0682)" class="st4" style="font-family:'Bookerly-Light'; font-size:11px;">s </text><text transform="matrix(1 0 0 1 1742.9271 202.0682)" class="st4" style="font-family:'Bookerly-Light'; font-size:11px;">m</text><text transform="matrix(1 0 0 1 1752.1271 202.0682)" class="st4" style="font-family:'Bookerly-Light'; font-size:11px;">an</text><text transform="matrix(1 0 0 1 1763.6271 202.0682)" class="st4" style="font-family:'Bookerly-Light'; font-size:11px;">e</text><text transform="matrix(1 0 0 1 1769.3271 202.0682)" class="st4" style="font-family:'Bookerly-Light'; font-size:11px;">i</text><text transform="matrix(1 0 0 1 1771.9271 202.0682)" class="st4" style="font-family:'Bookerly-Light'; font-size:11px;">r</text><text transform="matrix(1 0 0 1 1775.3271 202.0682)" class="st4" style="font-family:'Bookerly-Light'; font-size:11px;">as</text><text transform="matrix(1 0 0 1 1785.0271 202.0682)" class="st4" style="font-family:'Bookerly-Light'; font-size:11px;"> </text><text transform="matrix(1 0 0 1 1787.4271 202.0682)" class="st4" style="font-family:'Bookerly-Light'; font-size:11px;">n</text><text transform="matrix(1 0 0 1 1793.5271 202.0682)" class="st4" style="font-family:'Bookerly-Light'; font-size:11px;">a</text><text transform="matrix(1 0 0 1 1798.9271 202.0682)" class="st4" style="font-family:'Bookerly-Light'; font-size:11px;"> c</text><text transform="matrix(1 0 0 1 1806.2271 202.0682)" class="st4" style="font-family:'Bookerly-Light'; font-size:11px;">r</text><text transform="matrix(1 0 0 1 1810.1271 202.0682)" class="st4" style="font-family:'Bookerly-Light'; font-size:11px;">i</text><text transform="matrix(1 0 0 1 1812.7271 202.0682)" class="st4" style="font-family:'Bookerly-Light'; font-size:11px;">aç</text><text transform="matrix(1 0 0 1 1823.0271 202.0682)" class="st4" style="font-family:'Bookerly-Light'; font-size:11px;">ã</text><text transform="matrix(1 0 0 1 1828.4271 202.0682)" class="st4" style="font-family:'Bookerly-Light'; font-size:11px;">o</text><text transform="matrix(1 0 0 1 1834.4271 202.0682)" class="st4" style="font-family:'Bookerly-Light'; font-size:11px;"> d</text><text transform="matrix(1 0 0 1 1843.0271 202.0682)" class="st4" style="font-family:'Bookerly-Light'; font-size:11px;">e p</text><text transform="matrix(1 0 0 1 1857.2272 202.0682)" class="st4" style="font-family:'Bookerly-Light'; font-size:11px;">e</text><text transform="matrix(1 0 0 1 1862.9271 202.0682)" class="st4" style="font-family:'Bookerly-Light'; font-size:11px;">ça</text><text transform="matrix(1 0 0 1 1873.2272 202.0682)" class="st4" style="font-family:'Bookerly-Light'; font-size:11px;">s </text><text transform="matrix(1 0 0 1 1879.9271 202.0682)" class="st4" style="font-family:'Bookerly-Light'; font-size:11px;">d</text><text transform="matrix(1 0 0 1 1886.2272 202.0682)" class="st4" style="font-family:'Bookerly-Light'; font-size:11px;">a </text><text transform="matrix(1 0 0 1 1893.827 202.0682)" class="st4" style="font-family:'Bookerly-Light'; font-size:11px;">m</text><text transform="matrix(1 0 0 1 1903.1271 202.0682)" class="st4" style="font-family:'Bookerly-Light'; font-size:11px;">a</text><text transform="matrix(1 0 0 1 1908.4271 202.0682)" class="st4" style="font-family:'Bookerly-Light'; font-size:11px;">r</text><text transform="matrix(1 0 0 1 1911.827 202.0682)" class="st4" style="font-family:'Bookerly-Light'; font-size:11px;">c</text><text transform="matrix(1 0 0 1 1916.827 202.0682)" class="st4" style="font-family:'Bookerly-Light'; font-size:11px;">a</text><text transform="matrix(1 0 0 1 1922.1271 202.0682)" class="st4" style="font-family:'Bookerly-Light'; font-size:11px;">. </text><text transform="matrix(1 0 0 1 1593.0271 238.0716)" class="st4" style="font-family:'Bookerly-Light'; font-size:11px;">El</text><text transform="matrix(1 0 0 1 1601.1271 238.0716)" class="st4" style="font-family:'Bookerly-Light'; font-size:11px;">e</text><text transform="matrix(1 0 0 1 1606.7271 238.0716)" class="st4" style="font-family:'Bookerly-Light'; font-size:11px;">s pod</text><text transform="matrix(1 0 0 1 1632.1271 238.0716)" class="st4" style="font-family:'Bookerly-Light'; font-size:11px;">e</text><text transform="matrix(1 0 0 1 1637.7271 238.0716)" class="st4" style="font-family:'Bookerly-Light'; font-size:11px;">m s</text><text transform="matrix(1 0 0 1 1653.7271 238.0716)" class="st4" style="font-family:'Bookerly-Light'; font-size:11px;">e</text><text transform="matrix(1 0 0 1 1659.3271 238.0716)" class="st4" style="font-family:'Bookerly-Light'; font-size:11px;">r u</text><text transform="matrix(1 0 0 1 1671.4271 238.0716)" class="st4" style="font-family:'Bookerly-Light'; font-size:11px;">s</text><text transform="matrix(1 0 0 1 1675.7271 238.0716)" class="st4" style="font-family:'Bookerly-Light'; font-size:11px;">ados nas no</text><text transform="matrix(1 0 0 1 1730.5271 238.0716)" class="st4" style="font-family:'Bookerly-Light'; font-size:11px;">s</text><text transform="matrix(1 0 0 1 1734.8271 238.0716)" class="st4" style="font-family:'Bookerly-Light'; font-size:11px;">s</text><text transform="matrix(1 0 0 1 1739.0271 238.0716)" class="st4" style="font-family:'Bookerly-Light'; font-size:11px;">as quat</text><text transform="matrix(1 0 0 1 1772.5271 238.0716)" class="st4" style="font-family:'Bookerly-Light'; font-size:11px;">r</text><text transform="matrix(1 0 0 1 1775.9271 238.0716)" class="st4" style="font-family:'Bookerly-Light'; font-size:11px;">o co</text><text transform="matrix(1 0 0 1 1795.4271 238.0716)" class="st4" style="font-family:'Bookerly-Light'; font-size:11px;">r</text><text transform="matrix(1 0 0 1 1798.8271 238.0716)" class="st4" style="font-family:'Bookerly-Light'; font-size:11px;">e</text><text transform="matrix(1 0 0 1 1804.4271 238.0716)" class="st4" style="font-family:'Bookerly-Light'; font-size:11px;">s institu</text><text transform="matrix(1 0 0 1 1840.4271 238.0716)" class="st4" style="font-family:'Bookerly-Light'; font-size:11px;">c</text><text transform="matrix(1 0 0 1 1845.5271 238.0716)" class="st4" style="font-family:'Bookerly-Light'; font-size:11px;">ionais </text><text transform="matrix(1 0 0 1 1875.0271 238.0716)" class="st4" style="font-family:'Bookerly-Light'; font-size:11px;">(</text><text transform="matrix(1 0 0 1 1878.0271 238.0716)" class="st4" style="font-family:'Bookerly-Light'; font-size:11px;">e</text><text transform="matrix(1 0 0 1 1883.5271 238.0716)" class="st4" style="font-family:'Bookerly-Light'; font-size:11px;">v</text><text transform="matrix(1 0 0 1 1889.1271 238.0716)" class="st4" style="font-family:'Bookerly-Light'; font-size:11px;">itar o p</text><text transform="matrix(1 0 0 1 1921.4271 238.0716)" class="st4" style="font-family:'Bookerly-Light'; font-size:11px;">r</text><text transform="matrix(1 0 0 1 1924.9271 238.0716)" class="st4" style="font-family:'Bookerly-Light'; font-size:11px;">e</text><text transform="matrix(1 0 0 1 1930.6271 238.0716)" class="st4" style="font-family:'Bookerly-Light'; font-size:11px;">t</text><text transform="matrix(1 0 0 1 1934.327 238.0716)" class="st4" style="font-family:'Bookerly-Light'; font-size:11px;">o</text><text transform="matrix(1 0 0 1 1940.2272 238.0716)" class="st4" style="font-family:'Bookerly-Light'; font-size:11px;">)</text><text transform="matrix(1 0 0 1 1593.0271 256.0673)" class="st4" style="font-family:'Bookerly-Light'; font-size:11px;">o</text><text transform="matrix(1 0 0 1 1599.1271 256.0673)" class="st4" style="font-family:'Bookerly-Light'; font-size:11px;">u</text><text transform="matrix(1 0 0 1 1605.2271 256.0673)" class="st4" style="font-family:'Bookerly-Light'; font-size:11px;"> ap</text><text transform="matrix(1 0 0 1 1619.1271 256.0673)" class="st4" style="font-family:'Bookerly-Light'; font-size:11px;">e</text><text transform="matrix(1 0 0 1 1624.8271 256.0673)" class="st4" style="font-family:'Bookerly-Light'; font-size:11px;">na</text><text transform="matrix(1 0 0 1 1636.3271 256.0673)" class="st4" style="font-family:'Bookerly-Light'; font-size:11px;">s</text><text transform="matrix(1 0 0 1 1640.7271 256.0673)" class="st4" style="font-family:'Bookerly-Light'; font-size:11px;"> como</text><text transform="matrix(1 0 0 1 1669.3271 256.0673)" class="st4" style="font-family:'Bookerly-Light'; font-size:11px;"> </text><text transform="matrix(1 0 0 1 1671.7271 256.0673)" class="st4" style="font-family:'Bookerly-Light'; font-size:11px;">sh</text><text transform="matrix(1 0 0 1 1682.2271 256.0673)" class="st4" style="font-family:'Bookerly-Light'; font-size:11px;">a</text><text transform="matrix(1 0 0 1 1687.5271 256.0673)" class="st4" style="font-family:'Bookerly-Light'; font-size:11px;">pe</text><text transform="matrix(1 0 0 1 1699.4271 256.0673)" class="st4" style="font-family:'Bookerly-Light'; font-size:11px;"> </text><text transform="matrix(1 0 0 1 1701.7271 256.0673)" class="st4" style="font-family:'Bookerly-Light'; font-size:11px;">r</text><text transform="matrix(1 0 0 1 1705.1271 256.0673)" class="st4" style="font-family:'Bookerly-Light'; font-size:11px;">e</text><text transform="matrix(1 0 0 1 1710.8271 256.0673)" class="st4" style="font-family:'Bookerly-Light'; font-size:11px;">co</text><text transform="matrix(1 0 0 1 1721.9271 256.0673)" class="st4" style="font-family:'Bookerly-Light'; font-size:11px;">r</text><text transform="matrix(1 0 0 1 1725.9271 256.0673)" class="st4" style="font-family:'Bookerly-Light'; font-size:11px;">ta</text><text transform="matrix(1 0 0 1 1734.9271 256.0673)" class="st4" style="font-family:'Bookerly-Light'; font-size:11px;">d</text><text transform="matrix(1 0 0 1 1741.1271 256.0673)" class="st4" style="font-family:'Bookerly-Light'; font-size:11px;">o</text><text transform="matrix(1 0 0 1 1746.9271 256.0673)" class="st4" style="font-family:'Bookerly-Light'; font-size:11px;">. O âng</text><text transform="matrix(1 0 0 1 1779.2271 256.0673)" class="st4" style="font-family:'Bookerly-Light'; font-size:11px;">u</text><text transform="matrix(1 0 0 1 1785.3271 256.0673)" class="st4" style="font-family:'Bookerly-Light'; font-size:11px;">lo</text><text transform="matrix(1 0 0 1 1794.0271 256.0673)" class="st4" style="font-family:'Bookerly-Light'; font-size:11px;"> </text><text transform="matrix(1 0 0 1 1796.4271 256.0673)" class="st4" style="font-family:'Bookerly-Light'; font-size:11px;">po</text><text transform="matrix(1 0 0 1 1808.7271 256.0673)" class="st4" style="font-family:'Bookerly-Light'; font-size:11px;">d</text><text transform="matrix(1 0 0 1 1815.0271 256.0673)" class="st4" style="font-family:'Bookerly-Light'; font-size:11px;">e</text><text transform="matrix(1 0 0 1 1820.5271 256.0673)" class="st4" style="font-family:'Bookerly-Light'; font-size:11px;"> </text><text transform="matrix(1 0 0 1 1822.9271 256.0673)" class="st4" style="font-family:'Bookerly-Light'; font-size:11px;">v</text><text transform="matrix(1 0 0 1 1828.2271 256.0673)" class="st4" style="font-family:'Bookerly-Light'; font-size:11px;">a</text><text transform="matrix(1 0 0 1 1833.5271 256.0673)" class="st4" style="font-family:'Bookerly-Light'; font-size:11px;">r</text><text transform="matrix(1 0 0 1 1837.4271 256.0673)" class="st4" style="font-family:'Bookerly-Light'; font-size:11px;">i</text><text transform="matrix(1 0 0 1 1840.1271 256.0673)" class="st4" style="font-family:'Bookerly-Light'; font-size:11px;">a</text><text transform="matrix(1 0 0 1 1845.4271 256.0673)" class="st4" style="font-family:'Bookerly-Light'; font-size:11px;">r</text><text transform="matrix(1 0 0 1 1849.0271 256.0673)" class="st4" style="font-family:'Bookerly-Light'; font-size:11px;"> </text><text transform="matrix(1 0 0 1 1851.4271 256.0673)" class="st4" style="font-family:'Bookerly-Light'; font-size:11px;">con</text><text transform="matrix(1 0 0 1 1868.5271 256.0673)" class="st4" style="font-family:'Bookerly-Light'; font-size:11px;">f</text><text transform="matrix(1 0 0 1 1871.6271 256.0673)" class="st4" style="font-family:'Bookerly-Light'; font-size:11px;">o</text><text transform="matrix(1 0 0 1 1877.7272 256.0673)" class="st4" style="font-family:'Bookerly-Light'; font-size:11px;">r</text><text transform="matrix(1 0 0 1 1881.5271 256.0673)" class="st4" style="font-family:'Bookerly-Light'; font-size:11px;">me</text><text transform="matrix(1 0 0 1 1896.327 256.0673)" class="st4" style="font-family:'Bookerly-Light'; font-size:11px;"> a</text><text transform="matrix(1 0 0 1 1904.0271 256.0673)" class="st4" style="font-family:'Bookerly-Light'; font-size:11px;"> n</text><text transform="matrix(1 0 0 1 1912.5271 256.0673)" class="st4" style="font-family:'Bookerly-Light'; font-size:11px;">e</text><text transform="matrix(1 0 0 1 1918.2272 256.0673)" class="st4" style="font-family:'Bookerly-Light'; font-size:11px;">c</text><text transform="matrix(1 0 0 1 1923.1271 256.0673)" class="st4" style="font-family:'Bookerly-Light'; font-size:11px;">e</text><text transform="matrix(1 0 0 1 1928.827 256.0673)" class="st4" style="font-family:'Bookerly-Light'; font-size:11px;">s</text><text transform="matrix(1 0 0 1 1933.0271 256.0673)" class="st4" style="font-family:'Bookerly-Light'; font-size:11px;">s</text><text transform="matrix(1 0 0 1 1937.4271 256.0673)" class="st4" style="font-family:'Bookerly-Light'; font-size:11px;">idad</text><text transform="matrix(1 0 0 1 1957.827 256.0673)" class="st4" style="font-family:'Bookerly-Light'; font-size:11px;">e</text><text transform="matrix(1 0 0 1 1963.327 256.0673)" class="st4" style="font-family:'Bookerly-Light'; font-size:11px;">.</text><text transform="matrix(1 0 0 1 1593.0271 292.0702)" class="st4" style="font-family:'Bookerly-Bold'; font-size:11px;">A</text><text transform="matrix(1 0 0 1 1599.6271 292.0702)" class="st4" style="font-family:'Bookerly-Bold'; font-size:11px;">ten</text><text transform="matrix(1 0 0 1 1614.8271 292.0702)" class="st4" style="font-family:'Bookerly-Bold'; font-size:11px;">ç</text><text transform="matrix(1 0 0 1 1619.7271 292.0702)" class="st4" style="font-family:'Bookerly-Bold'; font-size:11px;">ão:  </text><text transform="matrix(1 0 0 1 1645.8708 292.0702)" class="st4" style="font-family:'Bookerly-Light'; font-size:11px;">S</text><text transform="matrix(1 0 0 1 1651.2709 292.0702)" class="st4" style="font-family:'Bookerly-Light'; font-size:11px;">e</text><text transform="matrix(1 0 0 1 1656.8708 292.0702)" class="st4" style="font-family:'Bookerly-Light'; font-size:11px;">mp</text><text transform="matrix(1 0 0 1 1672.3708 292.0702)" class="st4" style="font-family:'Bookerly-Light'; font-size:11px;">r</text><text transform="matrix(1 0 0 1 1675.7709 292.0702)" class="st4" style="font-family:'Bookerly-Light'; font-size:11px;">e utilize os  a</text><text transform="matrix(1 0 0 1 1733.9708 292.0702)" class="st4" style="font-family:'Bookerly-Light'; font-size:11px;">r</text><text transform="matrix(1 0 0 1 1737.2709 292.0702)" class="st4" style="font-family:'Bookerly-Light'; font-size:11px;">qu</text><text transform="matrix(1 0 0 1 1749.5708 292.0702)" class="st4" style="font-family:'Bookerly-Light'; font-size:11px;">i</text><text transform="matrix(1 0 0 1 1751.6709 292.0702)" class="st4" style="font-family:'Bookerly-Light'; font-size:11px;">v</text><text transform="matrix(1 0 0 1 1756.7709 292.0702)" class="st4" style="font-family:'Bookerly-Light'; font-size:11px;">os o</text><text transform="matrix(1 0 0 1 1775.5708 292.0702)" class="st4" style="font-family:'Bookerly-Light'; font-size:11px;">r</text><text transform="matrix(1 0 0 1 1779.4708 292.0702)" class="st4" style="font-family:'Bookerly-Light'; font-size:11px;">i</text><text transform="matrix(1 0 0 1 1781.9708 292.0702)" class="st4" style="font-family:'Bookerly-Light'; font-size:11px;">ginais </text><text transform="matrix(1 0 0 1 1811.3708 292.0702)" class="st4" style="font-family:'Bookerly-Light'; font-size:11px;">e</text><text transform="matrix(1 0 0 1 1816.9708 292.0702)" class="st4" style="font-family:'Bookerly-Light'; font-size:11px;">n</text><text transform="matrix(1 0 0 1 1822.5708 292.0702)" class="st4" style="font-family:'Bookerly-Light'; font-size:11px;">v</text><text transform="matrix(1 0 0 1 1828.2709 292.0702)" class="st4" style="font-family:'Bookerly-Light'; font-size:11px;">iados pelo ma</text><text transform="matrix(1 0 0 1 1892.2709 292.0702)" class="st4" style="font-family:'Bookerly-Light'; font-size:11px;">r</text><text transform="matrix(1 0 0 1 1895.7709 292.0702)" class="st4" style="font-family:'Bookerly-Light'; font-size:11px;">k</text><text transform="matrix(1 0 0 1 1900.8708 292.0702)" class="st4" style="font-family:'Bookerly-Light'; font-size:11px;">e</text><text transform="matrix(1 0 0 1 1906.5709 292.0702)" class="st4" style="font-family:'Bookerly-Light'; font-size:11px;">tin</text><text transform="matrix(1 0 0 1 1918.9708 292.0702)" class="st4" style="font-family:'Bookerly-Light'; font-size:11px;">g</text><text transform="matrix(1 0 0 1 1925.2709 292.0702)" class="st4" style="font-family:'Bookerly-Light'; font-size:11px;">.</text><text transform="matrix(1 0 0 1 2092.218 408.2635)" class="st4" style="font-family:'Bookerly-Light'; font-size:11px;">C</text><text transform="matrix(1 0 0 1 2098.5181 408.2635)" class="st4" style="font-family:'Bookerly-Light'; font-size:11px;">omo</text><text transform="matrix(1 0 0 1 2119.8181 408.2635)" class="st4" style="font-family:'Bookerly-Light'; font-size:11px;"> </text><text transform="matrix(1 0 0 1 2122.218 408.2635)" class="st4" style="font-family:'Bookerly-Light'; font-size:11px;">f</text><text transform="matrix(1 0 0 1 2125.3181 408.2635)" class="st4" style="font-family:'Bookerly-Light'; font-size:11px;">o</text><text transform="matrix(1 0 0 1 2131.3181 408.2635)" class="st4" style="font-family:'Bookerly-Light'; font-size:11px;">r</text><text transform="matrix(1 0 0 1 2134.918 408.2635)" class="st4" style="font-family:'Bookerly-Light'; font-size:11px;">ma</text><text transform="matrix(1 0 0 1 2149.5181 408.2635)" class="st4" style="font-family:'Bookerly-Light'; font-size:11px;"> </text><text transform="matrix(1 0 0 1 2151.8181 408.2635)" class="st4" style="font-family:'Bookerly-Light'; font-size:11px;">pa</text><text transform="matrix(1 0 0 1 2163.5181 408.2635)" class="st4" style="font-family:'Bookerly-Light'; font-size:11px;">r</text><text transform="matrix(1 0 0 1 2166.8181 408.2635)" class="st4" style="font-family:'Bookerly-Light'; font-size:11px;">a</text><text transform="matrix(1 0 0 1 2172.1179 408.2635)" class="st4" style="font-family:'Bookerly-Light'; font-size:11px;"> </text><text transform="matrix(1 0 0 1 2174.5181 408.2635)" class="st4" style="font-family:'Bookerly-Light'; font-size:11px;">f</text><text transform="matrix(1 0 0 1 2177.6179 408.2635)" class="st4" style="font-family:'Bookerly-Light'; font-size:11px;">o</text><text transform="matrix(1 0 0 1 2183.8181 408.2635)" class="st4" style="font-family:'Bookerly-Light'; font-size:11px;">to</text><text transform="matrix(1 0 0 1 2193.5181 408.2635)" class="st4" style="font-family:'Bookerly-Light'; font-size:11px;"> </text><text transform="matrix(1 0 0 1 2195.918 408.2635)" class="st4" style="font-family:'Bookerly-Light'; font-size:11px;">e</text><text transform="matrix(1 0 0 1 2201.418 408.2635)" class="st4" style="font-family:'Bookerly-Light'; font-size:11px;"> </text><text transform="matrix(1 0 0 1 2203.8181 408.2635)" class="st4" style="font-family:'Bookerly-Light'; font-size:11px;">outlin</text><text transform="matrix(1 0 0 1 2231.0181 408.2635)" class="st4" style="font-family:'Bookerly-Light'; font-size:11px;">e</text><text transform="matrix(1 0 0 1 1594.0281 408.2635)" class="st4" style="font-family:'Bookerly-Light'; font-size:11px;">C</text><text transform="matrix(1 0 0 1 1600.228 408.2635)" class="st4" style="font-family:'Bookerly-Light'; font-size:11px;">omo </text><text transform="matrix(1 0 0 1 1624.0281 408.2635)" class="st4" style="font-family:'Bookerly-Light'; font-size:11px;">f</text><text transform="matrix(1 0 0 1 1627.1281 408.2635)" class="st4" style="font-family:'Bookerly-Light'; font-size:11px;">or</text><text transform="matrix(1 0 0 1 1636.8281 408.2635)" class="st4" style="font-family:'Bookerly-Light'; font-size:11px;">m</text><text transform="matrix(1 0 0 1 1646.0281 408.2635)" class="st4" style="font-family:'Bookerly-Light'; font-size:11px;">a por</text><text transform="matrix(1 0 0 1 1669.6281 408.2635)" class="st4" style="font-family:'Bookerly-Light'; font-size:11px;"> </text><text transform="matrix(1 0 0 1 1672.0281 408.2635)" class="st4" style="font-family:'Bookerly-Light'; font-size:11px;">c</text><text transform="matrix(1 0 0 1 1677.0281 408.2635)" class="st4" style="font-family:'Bookerly-Light'; font-size:11px;">i</text><text transform="matrix(1 0 0 1 1679.6281 408.2635)" class="st4" style="font-family:'Bookerly-Light'; font-size:11px;">ma da</text><text transform="matrix(1 0 0 1 1708.0281 408.2635)" class="st4" style="font-family:'Bookerly-Light'; font-size:11px;"> </text><text transform="matrix(1 0 0 1 1710.4281 408.2635)" class="st4" style="font-family:'Bookerly-Light'; font-size:11px;">f</text><text transform="matrix(1 0 0 1 1713.5281 408.2635)" class="st4" style="font-family:'Bookerly-Light'; font-size:11px;">o</text><text transform="matrix(1 0 0 1 1719.728 408.2635)" class="st4" style="font-family:'Bookerly-Light'; font-size:11px;">t</text><text transform="matrix(1 0 0 1 1723.3281 408.2635)" class="st4" style="font-family:'Bookerly-Light'; font-size:11px;">o</text><g>	<g>		<defs>			<rect id="SVGID_9_" x="1423.2" y="70.4" width="1289.8" height="737"></rect>		</defs>		<clipPath id="SVGID_10_">			<use xlink:href="#SVGID_9_" style="overflow:visible;"></use>		</clipPath>		<path class="st5" d="M2277.6,189.5c3.6,6.3,7.7,12.4,13.8,17.7c6.5,5.7,12.4,6.8,23.5,9.5c2.8,0.6,13.3,5.2,13.5,4.2   c5.2-36.9-29.3-70.4-69.3-79.6c-3.2-0.8-1.6,5.9,1.3,9.1C2272.2,164,2269.4,175.3,2277.6,189.5"></path>	</g>	<g>		<defs>			<rect id="SVGID_11_" x="1423.2" y="70.4" width="1289.8" height="737"></rect>		</defs>		<clipPath id="SVGID_12_">			<use xlink:href="#SVGID_11_" style="overflow:visible;"></use>		</clipPath>		<path class="st6" d="M2307.7,250.6c-6.3,3.6-12.4,7.7-17.7,13.8c-5.7,6.5-6.8,12.4-9.5,23.5c-0.6,2.8-5.2,13.3-4.2,13.5   c36.9,5.2,70.4-29.3,79.6-69.3c0.8-3.2-5.9-1.5-9.1,1.3C2333.3,245.2,2321.9,242.4,2307.7,250.6"></path>	</g>	<g>		<defs>			<rect id="SVGID_13_" x="1423.2" y="70.4" width="1289.8" height="737"></rect>		</defs>		<clipPath id="SVGID_14_">			<use xlink:href="#SVGID_13_" style="overflow:visible;"></use>		</clipPath>		<path class="st7" d="M2355.9,189.9c3.6,6.3,7.6,12.3,13.7,17.6c6.5,5.7,12.4,6.8,23.3,9.4c2.7,0.6,13.3,5.1,13.4,4.2   c5.1-36.7-29.2-70-68.9-79.2c-3.2-0.8-1.5,5.9,1.3,9.1C2350.6,164.5,2347.8,175.8,2355.9,189.9z"></path>	</g>	<g>		<defs>			<rect id="SVGID_15_" x="1423.2" y="70.4" width="1289.8" height="737"></rect>		</defs>		<clipPath id="SVGID_16_">			<use xlink:href="#SVGID_15_" style="overflow:visible;"></use>		</clipPath>		<path class="st8" d="M2385.5,250.3c-6.3,3.6-12.3,7.6-17.6,13.7c-5.7,6.5-6.8,12.4-9.4,23.3c-0.6,2.7-5.1,13.3-4.2,13.4   c36.7,5.1,70-29.2,79.2-68.9c0.8-3.2-5.9-1.5-9.1,1.3C2410.9,244.9,2399.6,242.2,2385.5,250.3z"></path>	</g>	<g>		<defs>			<rect id="SVGID_17_" x="1423.2" y="70.4" width="1289.8" height="737"></rect>		</defs>		<clipPath id="SVGID_18_">			<use xlink:href="#SVGID_17_" style="overflow:visible;"></use>		</clipPath>		<path class="st9" d="M2438.8,192.3c3.6,6.3,7.7,12.4,13.8,17.7c6.5,5.7,12.4,6.8,23.5,9.5c2.8,0.6,13.3,5.2,13.5,4.2   c5.2-36.9-29.3-70.4-69.3-79.6c-3.2-0.8-1.6,5.9,1.3,9.1C2433.4,166.7,2430.6,178.1,2438.8,192.3"></path>	</g>	<g>		<defs>			<rect id="SVGID_19_" x="1423.2" y="70.4" width="1289.8" height="737"></rect>		</defs>		<clipPath id="SVGID_20_">			<use xlink:href="#SVGID_19_" style="overflow:visible;"></use>		</clipPath>		<path class="st10" d="M2469,253.4c-6.3,3.6-12.4,7.7-17.7,13.8c-5.7,6.5-6.8,12.4-9.5,23.5c-0.6,2.8-5.2,13.3-4.2,13.5   c36.9,5.2,70.4-29.3,79.6-69.3c0.8-3.2-5.9-1.5-9.1,1.3C2494.5,248,2483.1,245.2,2469,253.4"></path>	</g>	<g>		<defs>			<rect id="SVGID_21_" x="1423.2" y="70.4" width="1289.8" height="737"></rect>		</defs>		<clipPath id="SVGID_22_">			<use xlink:href="#SVGID_21_" style="overflow:visible;"></use>		</clipPath>		<path class="st11" d="M2517.2,192.6c3.6,6.3,7.6,12.3,13.7,17.6c6.5,5.7,12.4,6.8,23.3,9.4c2.7,0.6,13.3,5.1,13.4,4.2   c5.1-36.7-29.2-70-68.9-79.2c-3.2-0.8-1.5,5.9,1.3,9.1C2511.8,167.2,2509,178.5,2517.2,192.6z"></path>	</g>	<g>		<defs>			<rect id="SVGID_23_" x="1423.2" y="70.4" width="1289.8" height="737"></rect>		</defs>		<clipPath id="SVGID_24_">			<use xlink:href="#SVGID_23_" style="overflow:visible;"></use>		</clipPath>		<path class="st12" d="M2546.8,253.1c-6.3,3.6-12.3,7.6-17.6,13.7c-5.7,6.5-6.8,12.4-9.4,23.3c-0.6,2.7-5.1,13.3-4.2,13.4   c36.7,5.1,70-29.2,79.2-68.9c0.8-3.2-5.9-1.5-9.1,1.3C2572.2,247.7,2560.9,244.9,2546.8,253.1z"></path>	</g></g><text transform="matrix(1 0 0 1 2674.0667 779.1737)" class="st4" style="font-family:'Bookerly-Light'; font-size:9px;">3</text><text transform="matrix(1 0 0 1 2678.6667 779.1737)" class="st4" style="font-family:'Bookerly-Light'; font-size:9px;">5</text><g>	<path class="st13" d="M965.6,432.6c-15.2,17.8-53.6,35.5-108.2,49.8c-40.4,10.6-78.4,16.5-95,17.3c43.6-9.3,55.1-28,55.6-28.8  l-0.8-0.6c-0.2,0.2-26.1,22.3-65.8,20.3c-14.7-0.7-37.3,1.1-67.2,5.5c3-1,6.8-2,9.9-2.8c2.5-0.6,4.5-1.1,5.3-1.5  c25.6-8.6,41.9-19.3,48.5-32.1c5.4-10.4,2.9-19.4,1.6-24.2c-0.2-0.6-0.3-1.2-0.4-1.6l-0.7-3.1l-0.3,3.9c-1.2,13.8-2,23.7-20.7,35.5  c-12.4,7.8-60.2,25.6-128.7,30.6c-61,4.4-157.1-0.1-268.5-46.8c-69.6-35.7-130.5-58.6-186.3-70.1c-48.4-10-95-11.9-146.7-6l0.1,1  c78.3-8.9,172.7-5.8,332.5,76c91.1,38.2,172,48.2,231.8,48.2c13.5,0,25.9-0.5,37.1-1.3c74.2-5.4,119.3-24.4,129.2-30.7  c18.1-11.4,19.9-21.6,21-34.2c2.8,10.4,7.3,34.9-49.7,54c-0.8,0.3-2.9,0.8-5.2,1.4c-4.8,1.2-11.3,2.9-13.9,4.4l-1.8,1l2.1-0.1  c0.2,0,0.8-0.1,2.5-0.4c30.6-4.5,53.7-6.5,68.5-5.7c32.4,1.6,55.5-12.5,63.5-18.3c-5.3,6-20.9,19.6-58.1,26.5l-4.3,0.8l4.4,0.2  c12,0.5,54.9-5.4,100.8-17.4c38.7-10.2,89-27.1,108.7-50.1L965.6,432.6z"></path>	<path class="st13" d="M733.2,453.2c0,0.2,0,0.8,0,1.3c0,1.6,0,1.9,0.3,2.1l0.2,0.2l0.2-0.1c8.8-1.9,12.9-12.4,11.8-21.4  c0-0.4-0.3-0.6-0.6-0.7c-0.7-0.1-1.8,0.8-2.1,1.5c-1.1,2-2.4,2.9-3.7,3.9c-1,0.7-2.1,1.5-3.1,2.7c-1,1.1-2,2.5-2.7,4.4  c-0.7,1.8-0.5,3.2-0.3,5.4L733.2,453.2z M745.3,435.5l-0.5,0.1l0,0L745.3,435.5z M734.4,447.6c0.7-1.8,1.7-3.1,2.6-4.1  c0.9-1.1,2-1.9,2.9-2.6c1.4-1,2.8-2,4-4.2c0.2-0.4,0.6-0.8,0.9-0.9c0.9,8.1-2.8,17.9-10.5,19.9c0-0.3,0-0.8,0-1.2  c0-0.6,0-1.2,0-1.5l-0.1-0.5C733.9,450.4,733.7,449.2,734.4,447.6z"></path>	<path class="st14" d="M745.4,71.7c-0.1-0.7-1.4,0.1-1.8,1c-1.9,3.6-4.5,3.9-6.9,6.7c-1.1,1.2-2,2.6-2.7,4.3  c-0.7,1.8-0.5,3.2-0.2,5.7c0.1,0.6-0.1,3.2,0.2,3.2C742.2,90.7,746.6,80.8,745.4,71.7z M-2.7,154.1h969.1l-0.3-84.9  c-36.2,42.2-183.4,68.5-209.1,67.4c47.9-8.8,60.2-28.8,60.7-29.7c-0.7,0.9-26.6,22.5-66.2,20.5c-25.8-1.3-70,6-71.1,6.1  c3.9-2.2,16.6-4.8,19-5.8c63.6-21.3,51-49.9,49.3-57.3c-1.2,14.1-1.8,24.5-21,36.6c-24,15.1-187.3,72-397.7-16.2  C184.1,15.9,90.2,4.1-2.7,14.6V154.1z"></path></g></svg>